<svg xmlns="http://www.w3.org/2000/svg" viewBox="0 0 44.78 64.88"><defs><style>.cls-1{fill:none;stroke:#000;stroke-linecap:round;stroke-linejoin:round;stroke-width:2px;}</style></defs><title>Asset 59</title><g id="Layer_2" data-name="Layer 2"><g id="Layer_2-2" data-name="Layer 2"><circle class="cls-1" cx="18.19" cy="20.46" r="2.26"/><circle class="cls-1" cx="26.59" cy="28.86" r="2.26"/><line class="cls-1" x1="26.84" y1="20.21" x2="17.94" y2="29.1"/><rect class="cls-1" x="1" y="1" width="42.78" height="62.88" rx="8.68"/><line class="cls-1" x1="16.8" y1="58.21" x2="27.97" y2="58.21"/><path class="cls-1" d="M27.8,6.59H17a2.1,2.1,0,0,1-2-1.54L13.84,1H30.93L29.81,5.05A2.09,2.09,0,0,1,27.8,6.59Z"/><circle class="cls-1" cx="22.39" cy="24.66" r="13.78"/><line class="cls-1" x1="8.61" y1="43.7" x2="18.53" y2="43.7"/><line class="cls-1" x1="23.49" y1="43.7" x2="36.17" y2="43.7"/><line class="cls-1" x1="8.61" y1="48.93" x2="15.1" y2="48.93"/><line class="cls-1" x1="21.2" y1="48.93" x2="36.17" y2="48.93"/></g></g></svg>