<svg xmlns="http://www.w3.org/2000/svg" viewBox="0 0 64.88 56.43"><defs><style>.cls-1{fill:none;stroke:#000;stroke-linecap:round;stroke-linejoin:round;stroke-width:2px;}</style></defs><title>Asset 13</title><g id="Layer_2" data-name="Layer 2"><g id="Layer_2-2" data-name="Layer 2"><path class="cls-1" d="M5.1,1H59.78a4.1,4.1,0,0,1,4.1,4.1V15.53a0,0,0,0,1,0,0H1a0,0,0,0,1,0,0V5.1A4.1,4.1,0,0,1,5.1,1Z"/><path class="cls-1" d="M5,15.53H59.91a0,0,0,0,1,0,0v35.8a4.1,4.1,0,0,1-4.1,4.1H9.07A4.1,4.1,0,0,1,5,51.33V15.53A0,0,0,0,1,5,15.53Z"/><rect class="cls-1" x="22.83" y="21.98" width="19.22" height="7.41" rx="1.63"/><rect class="cls-1" x="19.1" y="37.28" width="26.68" height="13.18" rx="1.68"/></g></g></svg>