<svg xmlns="http://www.w3.org/2000/svg" viewBox="0 0 57.78 64.98"><defs><style>.cls-1{fill:none;stroke:#000;stroke-linecap:round;stroke-linejoin:round;stroke-width:2px;}</style></defs><title>Asset 16</title><g id="Layer_2" data-name="Layer 2"><g id="Layer_2-2" data-name="Layer 2"><path class="cls-1" d="M33.76,27.83h7.33a2.13,2.13,0,0,0,2.13-2.13V21.43a2.13,2.13,0,0,0-2.13-2.14H35.9a2.13,2.13,0,0,1-2.14-2.13V12.89a2.14,2.14,0,0,1,2.14-2.14h7.32"/><line class="cls-1" x1="38.49" y1="10.75" x2="38.49" y2="6.45"/><line class="cls-1" x1="38.49" y1="27.83" x2="38.49" y2="32.13"/><path class="cls-1" d="M56.78,19.29a18.3,18.3,0,0,1-36.59,0c0-.3,0-.58,0-.86a18.3,18.3,0,0,1,36.57.86Z"/><path class="cls-1" d="M29.38,43,15.19,64,1,43H6.24V18.43h14c0,.28,0,.56,0,.86a18.16,18.16,0,0,0,3.94,11.33V43Z"/></g></g></svg>