<svg xmlns="http://www.w3.org/2000/svg" viewBox="0 0 64.9 64.89"><defs><style>.cls-1{fill:none;stroke:#000;stroke-linecap:round;stroke-linejoin:round;stroke-width:2px;}</style></defs><title>Asset 4</title><g id="Layer_2" data-name="Layer 2"><g id="Layer_2-2" data-name="Layer 2"><path class="cls-1" d="M63.9,29.31A28.33,28.33,0,0,1,35.58,57.62a28,28,0,0,1-10-1.84,13,13,0,0,0,.85-4.59,13.13,13.13,0,0,0-.17-2.1A12.74,12.74,0,0,0,15.8,38.66a13.22,13.22,0,0,0-2.1-.17,12.74,12.74,0,0,0-4.6.85,28.33,28.33,0,0,1,22-38A28.91,28.91,0,0,1,35.58,1,28.3,28.3,0,0,1,63.9,29.31Z"/><path class="cls-1" d="M57.46,29.31A21.89,21.89,0,0,1,35.58,51.19a21.62,21.62,0,0,1-9.35-2.1A12.74,12.74,0,0,0,15.8,38.66a21.88,21.88,0,1,1,41.66-9.35Z"/><path class="cls-1" d="M11.14,55.79h3.95a1.14,1.14,0,0,0,1.15-1.15v-2.3a1.14,1.14,0,0,0-1.15-1.15h-2.8A1.16,1.16,0,0,1,11.14,50V47.73a1.16,1.16,0,0,1,1.15-1.15h3.95"/><line class="cls-1" x1="13.69" y1="46.58" x2="13.69" y2="44.27"/><line class="cls-1" x1="13.69" y1="55.79" x2="13.69" y2="58.11"/><path class="cls-1" d="M26.4,51.19a13,13,0,0,1-.85,4.59A12.72,12.72,0,1,1,13.7,38.49a13.22,13.22,0,0,1,2.1.17A12.74,12.74,0,0,1,26.23,49.09,13.13,13.13,0,0,1,26.4,51.19Z"/><line class="cls-1" x1="35.58" y1="7.42" x2="35.58" y2="11.15"/><line class="cls-1" x1="35.58" y1="47.45" x2="35.58" y2="51.19"/><line class="cls-1" x1="57.46" y1="29.3" x2="53.73" y2="29.3"/><line class="cls-1" x1="17.43" y1="29.3" x2="13.69" y2="29.3"/><polyline class="cls-1" points="26.18 29.3 35.58 29.3 35.58 22.99"/></g></g></svg>