<svg xmlns="http://www.w3.org/2000/svg" viewBox="0 0 62.9 64.83"><defs><style>.cls-1{fill:none;stroke:#000;stroke-linecap:round;stroke-linejoin:round;stroke-width:2px;}</style></defs><title>Asset 25</title><g id="Layer_2" data-name="Layer 2"><g id="Layer_2-2" data-name="Layer 2"><path class="cls-1" d="M45,1H17.86a5.62,5.62,0,0,0-5.59,5L6.54,54.39H56.36L50.64,6A5.64,5.64,0,0,0,45,1Z"/><rect class="cls-1" x="1" y="54.39" width="60.9" height="9.44" rx="2.47"/><path class="cls-1" d="M40.61,24.17a9.15,9.15,0,0,1-5.31,8.31,9,9,0,0,1-3.85.85,9.16,9.16,0,1,1,9.16-9.16Z"/><path class="cls-1" d="M35.3,32.48V54.39H27.59V32.48a9.2,9.2,0,0,0,3.86.85A9,9,0,0,0,35.3,32.48Z"/><circle class="cls-1" cx="31.45" cy="24.17" r="4.63"/></g></g></svg>