<svg xmlns="http://www.w3.org/2000/svg" viewBox="0 0 64.88 50.86"><defs><style>.cls-1{fill:none;stroke:#000;stroke-linecap:round;stroke-linejoin:round;stroke-width:2px;}</style></defs><title>Asset 53</title><g id="Layer_2" data-name="Layer 2"><g id="Layer_2-2" data-name="Layer 2"><path class="cls-1" d="M56.45,25.89v19.9a4.07,4.07,0,0,1-4.07,4.07H5.07A4.07,4.07,0,0,1,1,45.79V17.51a4.06,4.06,0,0,1,4.07-4.06H46.74l-1.06,7.88L45.46,23A2.58,2.58,0,0,0,48,25.89Z"/><path class="cls-1" d="M56.45,25.89v4.56H1V21.33H45.68L45.46,23A2.58,2.58,0,0,0,48,25.89Z"/><line class="cls-1" x1="6.54" y1="43.39" x2="17.45" y2="43.39"/><line class="cls-1" x1="6.54" y1="38.3" x2="12.37" y2="38.3"/><path class="cls-1" d="M61.29,25.89H48A2.58,2.58,0,0,1,45.46,23l.22-1.63,1.06-7.88.54-4a2.58,2.58,0,0,1,2.56-2.24h9.63A2.59,2.59,0,0,1,62,9.46L63.85,23A2.59,2.59,0,0,1,61.29,25.89Z"/><path class="cls-1" d="M58.22,10.6v-6A3.56,3.56,0,0,0,54.66,1h0a3.57,3.57,0,0,0-3.57,3.57v6"/></g></g></svg>