<svg xmlns="http://www.w3.org/2000/svg" viewBox="0 0 37.66 64.88"><defs><style>.cls-1{fill:none;stroke:#000;stroke-linecap:round;stroke-linejoin:round;stroke-width:2px;}</style></defs><title>Asset 21</title><g id="Layer_2" data-name="Layer 2"><g id="Layer_2-2" data-name="Layer 2"><circle class="cls-1" cx="18.83" cy="46.05" r="17.83"/><path class="cls-1" d="M36.66,4.45V19.51a3.47,3.47,0,0,1-2.31,3.26l-7.8,2.73-7.72,2.72L11.11,25.5l-7.8-2.73A3.47,3.47,0,0,1,1,19.51V4.45A3.46,3.46,0,0,1,4.45,1H33.2A3.46,3.46,0,0,1,36.66,4.45Z"/><polygon class="cls-1" points="26.55 1 26.55 25.5 18.84 28.22 11.11 25.5 11.11 1 26.55 1"/><polygon class="cls-1" points="18.83 35.97 21.75 43.09 29.43 43.67 23.56 48.65 25.38 56.13 18.83 52.09 12.28 56.13 14.1 48.65 8.23 43.67 15.91 43.09 18.83 35.97"/></g></g></svg>