<svg xmlns="http://www.w3.org/2000/svg" viewBox="0 0 63.03 64.88"><defs><style>.cls-1{fill:none;stroke:#000;stroke-linecap:round;stroke-linejoin:round;stroke-width:2px;}</style></defs><title>Asset 57</title><g id="Layer_2" data-name="Layer 2"><g id="Layer_2-2" data-name="Layer 2"><path class="cls-1" d="M38.72,17.52V32.61h9.17V61A2.87,2.87,0,0,1,45,63.88H3.87A2.87,2.87,0,0,1,1,61V3.87A2.86,2.86,0,0,1,3.87,1H45a2.86,2.86,0,0,1,2.87,2.87v6.74Z"/><line class="cls-1" x1="19.31" y1="13.17" x2="13.62" y2="18.87"/><circle class="cls-1" cx="13.09" cy="12.64" r="1.81"/><circle class="cls-1" cx="19.85" cy="19.4" r="1.81"/><circle class="cls-1" cx="16.47" cy="16.02" r="10.78"/><line class="cls-1" x1="8.79" y1="33.34" x2="20.35" y2="33.34"/><line class="cls-1" x1="8.62" y1="40.4" x2="40.27" y2="40.4"/><line class="cls-1" x1="8.62" y1="46.28" x2="40.27" y2="46.28"/><path class="cls-1" d="M40.27,58,38,54.88a1.24,1.24,0,0,0-2.18.31l-.38,1.05a1.26,1.26,0,0,1-2,.49L30.53,54a1.25,1.25,0,0,0-1.92.26l-1,1.66A4.51,4.51,0,0,1,24.4,58l-1.93.28"/><polygon class="cls-1" points="57.07 17.52 57.07 32.61 38.72 32.61 38.72 17.52 47.89 10.61 57.07 17.52"/><polyline class="cls-1" points="62.03 21.25 47.89 10.61 33.75 21.25"/><rect class="cls-1" x="43.85" y="24.15" width="8.09" height="8.46"/></g></g></svg>