<svg xmlns="http://www.w3.org/2000/svg" viewBox="0 0 40.97 64.88"><defs><style>.cls-1{fill:none;stroke:#000;stroke-linecap:round;stroke-linejoin:round;stroke-width:2px;}</style></defs><title>Asset 26</title><g id="Layer_2" data-name="Layer 2"><g id="Layer_2-2" data-name="Layer 2"><path class="cls-1" d="M33.08,63.88a1.56,1.56,0,0,0,1.56-1.7A16.9,16.9,0,0,0,1,62.18a1.56,1.56,0,0,0,1.56,1.7Z"/><path class="cls-1" d="M27.62,34.2l-7,.85-4-5.84A2.3,2.3,0,0,1,16.43,27L26.32,5.19a7.15,7.15,0,0,1,9.46-3.55h0a7.14,7.14,0,0,1,3.55,9.45l-9.9,21.79A2.26,2.26,0,0,1,27.62,34.2Z"/><line class="cls-1" x1="29.08" y1="16.39" x2="17.85" y2="41.12"/><path class="cls-1" d="M6.14,41.12H29.51a1.2,1.2,0,0,1,1.2,1.2v1.5A3.15,3.15,0,0,1,27.56,47H8.09a3.15,3.15,0,0,1-3.15-3.15v-1.5A1.2,1.2,0,0,1,6.14,41.12Z"/></g></g></svg>