<svg xmlns="http://www.w3.org/2000/svg" viewBox="0 0 64.88 63.55"><defs><style>.cls-1{fill:none;stroke:#000;stroke-linecap:round;stroke-linejoin:round;stroke-width:2px;}</style></defs><title>Asset 46</title><g id="Layer_2" data-name="Layer 2"><g id="Layer_2-2" data-name="Layer 2"><rect class="cls-1" x="1" y="1" width="62.88" height="54.68" rx="9.41"/><path class="cls-1" d="M57.1,8V48.67H11.18V38.26H13a1.61,1.61,0,0,0,1.61-1.61V20A1.6,1.6,0,0,0,13,18.43h-1.8V8Z"/><circle class="cls-1" cx="35.66" cy="28.34" r="14.02"/><circle class="cls-1" cx="35.66" cy="28.34" r="4.6"/><line class="cls-1" x1="35.66" y1="14.32" x2="35.66" y2="17.35"/><line class="cls-1" x1="35.66" y1="39.33" x2="35.66" y2="42.37"/><line class="cls-1" x1="49.68" y1="28.34" x2="46.64" y2="28.34"/><line class="cls-1" x1="24.67" y1="28.34" x2="21.63" y2="28.34"/><line class="cls-1" x1="45.57" y1="18.42" x2="43.43" y2="20.57"/><line class="cls-1" x1="27.89" y1="36.11" x2="25.74" y2="38.26"/><line class="cls-1" x1="45.57" y1="38.26" x2="43.43" y2="36.11"/><line class="cls-1" x1="27.89" y1="20.57" x2="25.74" y2="18.42"/><rect class="cls-1" x="7.78" y="18.43" width="6.81" height="19.83" rx="1.6"/><path class="cls-1" d="M9.07,55.68H18a0,0,0,0,1,0,0v3a3.87,3.87,0,0,1-3.87,3.87H12.95a3.87,3.87,0,0,1-3.87-3.87v-3A0,0,0,0,1,9.07,55.68Z"/><path class="cls-1" d="M46.91,55.68H55.8a0,0,0,0,1,0,0v3a3.87,3.87,0,0,1-3.87,3.87H50.79a3.87,3.87,0,0,1-3.87-3.87v-3A0,0,0,0,1,46.91,55.68Z"/></g></g></svg>