<svg xmlns="http://www.w3.org/2000/svg" viewBox="0 0 64.67 58.04"><defs><style>.cls-1{fill:none;stroke:#000;stroke-linecap:round;stroke-linejoin:round;stroke-width:2px;}</style></defs><title>Asset 2</title><g id="Layer_2" data-name="Layer 2"><g id="Layer_2-2" data-name="Layer 2"><circle class="cls-1" cx="8.63" cy="25.1" r="2.15"/><circle class="cls-1" cx="16.47" cy="32.94" r="2.15"/><line class="cls-1" x1="16.1" y1="25.47" x2="9" y2="32.57"/><circle class="cls-1" cx="12.55" cy="29.02" r="11.55"/><rect class="cls-1" x="21.08" y="1" width="42.59" height="5.95" rx="2.97"/><rect class="cls-1" x="21.08" y="51.09" width="42.59" height="5.95" rx="2.97" transform="translate(84.76 108.12) rotate(-180)"/><path class="cls-1" d="M58.77,12.89V7H26v5.94A16.38,16.38,0,0,0,39.5,29,16.37,16.37,0,0,0,26,45.14v6H58.77v-6A16.38,16.38,0,0,0,45.25,29,16.39,16.39,0,0,0,58.77,12.89Z"/><path class="cls-1" d="M26.09,43.34c3.71-2.69,9.62-4.43,16.29-4.43S55,40.65,58.67,43.34"/><path class="cls-1" d="M58.67,14.31C55,17,49.05,18.74,42.38,18.74S29.8,17,26.09,14.31"/></g></g></svg>