<svg xmlns="http://www.w3.org/2000/svg" viewBox="0 0 42.47 64.9"><defs><style>.cls-1{fill:none;stroke:#000;stroke-linecap:round;stroke-linejoin:round;stroke-width:2px;}</style></defs><title>Asset 11</title><g id="Layer_2" data-name="Layer 2"><g id="Layer_2-2" data-name="Layer 2"><path class="cls-1" d="M41.47,4.25V48.48a3.25,3.25,0,0,1-3.25,3.25H28a7.25,7.25,0,0,0,.28-2,7,7,0,0,0-14.06,0,6.89,6.89,0,0,0,.29,2H4.25A3.25,3.25,0,0,1,1,48.48V4.25A3.24,3.24,0,0,1,4.25,1h34A3.24,3.24,0,0,1,41.47,4.25Z"/><line class="cls-1" x1="9.04" y1="9.41" x2="33.42" y2="9.41"/><line class="cls-1" x1="9.04" y1="15.37" x2="33.42" y2="15.37"/><line class="cls-1" x1="9.04" y1="21.33" x2="33.42" y2="21.33"/><line class="cls-1" x1="9.04" y1="27.3" x2="33.42" y2="27.3"/><line class="cls-1" x1="9.04" y1="33.26" x2="33.42" y2="33.26"/><path class="cls-1" d="M28.26,49.74a7.25,7.25,0,0,1-.28,2,7,7,0,0,1-13.49,0,6.89,6.89,0,0,1-.29-2,7,7,0,0,1,14.06,0Z"/><path class="cls-1" d="M25.82,55.07V63.9l-4.59-2.15L16.64,63.9V55.06a7,7,0,0,0,9.18,0Z"/></g></g></svg>