<svg xmlns="http://www.w3.org/2000/svg" viewBox="0 0 63.39 64.88"><defs><style>.cls-1{fill:none;stroke:#000;stroke-linecap:round;stroke-linejoin:round;stroke-width:2px;}</style></defs><title>Asset 41</title><g id="Layer_2" data-name="Layer 2"><g id="Layer_2-2" data-name="Layer 2"><rect class="cls-1" x="20.22" y="12.84" width="25.08" height="17.65" transform="translate(-5.72 29.51) rotate(-45)"/><rect class="cls-1" x="40.64" y="-1.5" width="6.75" height="23.82" rx="3.38" transform="translate(5.53 34.18) rotate(-45)"/><rect class="cls-1" x="18.13" y="21.01" width="6.75" height="23.82" rx="3.38" transform="translate(-16.98 24.85) rotate(-45)"/><path class="cls-1" d="M45.7,23.33h8.72a0,0,0,0,1,0,0V50.24a4.36,4.36,0,0,1-4.36,4.36h0a4.36,4.36,0,0,1-4.36-4.36V23.33A0,0,0,0,1,45.7,23.33Z" transform="translate(-12.89 46.81) rotate(-45)"/><rect class="cls-1" x="1" y="56.11" width="36.75" height="7.77" rx="2.2"/><path class="cls-1" d="M8.53,48.77H30.22a3.32,3.32,0,0,1,3.32,3.32v4a0,0,0,0,1,0,0H5.21a0,0,0,0,1,0,0v-4A3.32,3.32,0,0,1,8.53,48.77Z"/></g></g></svg>