<svg xmlns="http://www.w3.org/2000/svg" viewBox="0 0 50.87 64.95"><defs><style>.cls-1{fill:none;stroke:#000;stroke-linecap:round;stroke-linejoin:round;stroke-width:2px;}</style></defs><title>Asset 61</title><g id="Layer_2" data-name="Layer 2"><g id="Layer_2-2" data-name="Layer 2"><path class="cls-1" d="M8.33,1h34.2a4.15,4.15,0,0,1,4.15,4.15V27.9a0,0,0,0,1,0,0H4.18a0,0,0,0,1,0,0V5.15A4.15,4.15,0,0,1,8.33,1Z"/><rect class="cls-1" x="8.82" y="5.64" width="24.12" height="17.63" rx="1.69"/><rect class="cls-1" x="37.86" y="6.88" width="5.04" height="5.04" rx="1.69"/><rect class="cls-1" x="37.86" y="16.97" width="5.04" height="5.04" rx="1.69"/><rect class="cls-1" x="4.18" y="27.9" width="23.68" height="29.8" transform="translate(32.05 85.61) rotate(-180)"/><rect class="cls-1" x="27.86" y="27.9" width="18.83" height="20.54" transform="translate(74.55 76.35) rotate(-180)"/><rect class="cls-1" x="27.86" y="48.45" width="18.83" height="9.26" transform="translate(74.55 106.15) rotate(-180)"/><rect class="cls-1" x="1" y="57.71" width="48.87" height="6.25" rx="2.1" transform="translate(50.87 121.66) rotate(-180)"/><rect class="cls-1" x="9.1" y="32.29" width="13.85" height="5.16" transform="translate(32.05 69.75) rotate(-180)"/><line class="cls-1" x1="21.5" y1="43.16" x2="10.55" y2="43.16"/><line class="cls-1" x1="21.5" y1="47.58" x2="10.55" y2="47.58"/><circle class="cls-1" cx="37.28" cy="38.17" r="2.58"/></g></g></svg>