<svg xmlns="http://www.w3.org/2000/svg" viewBox="0 0 64.88 48.58"><defs><style>.cls-1{fill:none;stroke:#000;stroke-linecap:round;stroke-linejoin:round;stroke-width:2px;}</style></defs><title>Asset 44</title><g id="Layer_2" data-name="Layer 2"><g id="Layer_2-2" data-name="Layer 2"><path class="cls-1" d="M12.92,38h5.52A1.61,1.61,0,0,0,20,36.39V33.17a1.6,1.6,0,0,0-1.6-1.6H14.53A1.61,1.61,0,0,1,12.92,30V26.74a1.61,1.61,0,0,1,1.61-1.61H20"/><line class="cls-1" x1="16.48" y1="25.13" x2="16.48" y2="21.9"/><line class="cls-1" x1="16.48" y1="38" x2="16.48" y2="41.24"/><path class="cls-1" d="M1,32.09a15.49,15.49,0,0,0,30.45,4,15.71,15.71,0,0,0,.51-4,15.41,15.41,0,0,0-2.69-8.72,15.56,15.56,0,0,0-5.95-5.17A15.17,15.17,0,0,0,17,16.63a4.26,4.26,0,0,0-.5,0A15.5,15.5,0,0,0,1,32.09Z"/><rect class="cls-1" x="53.85" y="5.6" width="6.34" height="30.46" rx="2.64" transform="translate(114.05 41.66) rotate(-180)"/><rect class="cls-1" x="41.56" y="17.52" width="6.34" height="18.54" rx="2.64" transform="translate(89.46 53.58) rotate(-180)"/><path class="cls-1" d="M29.27,23.37A15.41,15.41,0,0,1,32,32.09a15.71,15.71,0,0,1-.51,4H34a1.6,1.6,0,0,0,1.6-1.6V14.91A1.59,1.59,0,0,0,34,13.32H30.86a1.59,1.59,0,0,0-1.59,1.59Z"/><path class="cls-1" d="M17,6.6v10a15.17,15.17,0,0,1,6.34,1.57V6.6A1.6,1.6,0,0,0,21.72,5H18.58A1.59,1.59,0,0,0,17,6.6Z"/><path class="cls-1" d="M16.48,47.58h45.8a1.6,1.6,0,0,0,1.6-1.6V42.83a1.59,1.59,0,0,0-1.6-1.59H29A15.45,15.45,0,0,1,16.48,47.58Z"/><path class="cls-1" d="M1,42.83V46a1.6,1.6,0,0,0,1.59,1.6H16.48A15.45,15.45,0,0,1,4,41.24H2.59A1.59,1.59,0,0,0,1,42.83Z"/><path class="cls-1" d="M4.69,2.59V22.07A15.45,15.45,0,0,1,11,17.6v-15A1.6,1.6,0,0,0,9.43,1H6.28A1.59,1.59,0,0,0,4.69,2.59Z"/></g></g></svg>