<svg xmlns="http://www.w3.org/2000/svg" viewBox="0 0 53.35 64.78"><defs><style>.cls-1{fill:none;stroke:#000;stroke-linecap:round;stroke-linejoin:round;stroke-width:2px;}</style></defs><title>Asset 62</title><g id="Layer_2" data-name="Layer 2"><g id="Layer_2-2" data-name="Layer 2"><rect class="cls-1" x="1" y="52.59" width="51.35" height="11.19" rx="3.83"/><path class="cls-1" d="M15.21,43.24H38.14a5.71,5.71,0,0,1,5.71,5.71v3.65a0,0,0,0,1,0,0H9.51a0,0,0,0,1,0,0V48.95A5.71,5.71,0,0,1,15.21,43.24Z"/><path class="cls-1" d="M38.17,12.5a11.5,11.5,0,1,0-20.34,7.33,18.12,18.12,0,0,1,4,11.62V37h9.69V31.21a17.46,17.46,0,0,1,3.95-11.32A11.42,11.42,0,0,0,38.17,12.5Z"/><path class="cls-1" d="M20,37H33.39a1.48,1.48,0,0,1,1.48,1.48v4.78a0,0,0,0,1,0,0H18.47a0,0,0,0,1,0,0V38.47A1.48,1.48,0,0,1,20,37Z"/></g></g></svg>