<svg xmlns="http://www.w3.org/2000/svg" viewBox="0 0 64.88 60.07"><defs><style>.cls-1{fill:none;stroke:#000;stroke-linecap:round;stroke-linejoin:round;stroke-width:2px;}</style></defs><title>Asset 39</title><g id="Layer_2" data-name="Layer 2"><g id="Layer_2-2" data-name="Layer 2"><path class="cls-1" d="M58.28,3.68V27.1H6.6V3.68A2.68,2.68,0,0,1,9.29,1H55.6A2.68,2.68,0,0,1,58.28,3.68Z"/><path class="cls-1" d="M52.85,17.28a4.38,4.38,0,0,1-4.37,4.38v3.59a2.87,2.87,0,0,1-.67,1.85H17.08a2.88,2.88,0,0,1-.68-1.85V21.66a4.38,4.38,0,0,1,0-8.75V9.32a2.89,2.89,0,0,1,2.89-2.89h26.3a2.89,2.89,0,0,1,2.89,2.89v3.59A4.37,4.37,0,0,1,52.85,17.28Z"/><circle class="cls-1" cx="32.44" cy="17.28" r="5.73"/><line class="cls-1" x1="22.26" y1="17.28" x2="19.93" y2="17.28"/><line class="cls-1" x1="44.96" y1="17.28" x2="42.62" y2="17.28"/><rect class="cls-1" x="1" y="27.1" width="62.88" height="31.97"/><polyline class="cls-1" points="1 59.07 32.44 39.27 63.88 59.07"/><polyline class="cls-1" points="36.28 41.69 63.88 27.11 58.28 17.28"/><polyline class="cls-1" points="28.6 41.69 1 27.11 6.6 16.77"/></g></g></svg>