<svg xmlns="http://www.w3.org/2000/svg" viewBox="0 0 64.88 43.16"><defs><style>.cls-1{fill:none;stroke:#000;stroke-linecap:round;stroke-linejoin:round;stroke-width:2px;}</style></defs><title>Asset 22</title><g id="Layer_2" data-name="Layer 2"><g id="Layer_2-2" data-name="Layer 2"><circle class="cls-1" cx="49.36" cy="20.09" r="9.63"/><path class="cls-1" d="M37.27,11.47l-2.07-3a1.27,1.27,0,0,1,.31-1.76L41.58,2.5a1.28,1.28,0,0,1,1.77.31l2.07,3a14.64,14.64,0,0,1,16,5.9,14.68,14.68,0,1,1-24.11-.21Z"/><circle class="cls-1" cx="15.61" cy="27.68" r="9.63"/><path class="cls-1" d="M15.69,12.84l1.22-3.4a1.26,1.26,0,0,1,1.62-.76l7,2.51a1.26,1.26,0,0,1,.76,1.62L25,16.21a14.67,14.67,0,1,1-9.34-3.37Z"/><path class="cls-1" d="M38.69,4.52l-.25-.32A8.42,8.42,0,0,0,27.16,2.42h0a8.47,8.47,0,0,0-2.92,3.36l-2,4.23"/></g></g></svg>