<svg xmlns="http://www.w3.org/2000/svg" viewBox="0 0 64.88 62.82"><defs><style>.cls-1{fill:none;stroke:#000;stroke-linecap:round;stroke-linejoin:round;stroke-width:2px;}</style></defs><title>Asset 38</title><g id="Layer_2" data-name="Layer 2"><g id="Layer_2-2" data-name="Layer 2"><circle class="cls-1" cx="34.74" cy="17.13" r="2.6"/><circle class="cls-1" cx="27.1" cy="9.49" r="2.6"/><line class="cls-1" x1="26.75" y1="17.49" x2="35.1" y2="9.13"/><path class="cls-1" d="M43.23,13.31A12.3,12.3,0,0,1,34,25.24h0a28.68,28.68,0,0,0-6.05,0h0A12.31,12.31,0,1,1,43.23,13.31Z"/><path class="cls-1" d="M57.32,38c0,6.07-3.92,11.48-10,15v7.19a1.66,1.66,0,0,1-1.66,1.67H40.74a1.67,1.67,0,0,1-1.67-1.67v-4a35.8,35.8,0,0,1-16.3,0v4a1.67,1.67,0,0,1-1.67,1.67H16.21a1.66,1.66,0,0,1-1.66-1.67V53C9.84,50.26,6.44,46.43,5.12,42H2.66A1.66,1.66,0,0,1,1,40.37V35.59a1.66,1.66,0,0,1,1.66-1.67H5.12a18.92,18.92,0,0,1,8-10l-1.76-9,7.32,6.18c.7-.27,1.42-.51,2.16-.74a12.32,12.32,0,0,0,7.08,4.92h0a28.68,28.68,0,0,1,6.05,0h0A12.34,12.34,0,0,0,41,20.32C50.6,23.19,57.32,30,57.32,38Z"/><circle class="cls-1" cx="13.58" cy="33.4" r="2.72"/><path class="cls-1" d="M57.32,38h1.23a5.33,5.33,0,0,1,5.33,5.33v4"/><path class="cls-1" d="M38.42,26.15A25.07,25.07,0,0,0,34,25.24"/><path class="cls-1" d="M27.89,25.24a25.25,25.25,0,0,0-4.47.91"/></g></g></svg>