<svg xmlns="http://www.w3.org/2000/svg" viewBox="0 0 62.29 64.85"><defs><style>.cls-1{fill:none;stroke:#000;stroke-linecap:round;stroke-linejoin:round;stroke-width:2px;}</style></defs><title>Asset 55</title><g id="Layer_2" data-name="Layer 2"><g id="Layer_2-2" data-name="Layer 2"><path class="cls-1" d="M28.16,24.18V30.4a1.78,1.78,0,0,0,1.77,1.78h2.66a3.24,3.24,0,1,1,6.47,0h8.81V61A2.86,2.86,0,0,1,45,63.85H3.87A2.86,2.86,0,0,1,1,61V3.87A2.86,2.86,0,0,1,3.87,1H45a2.86,2.86,0,0,1,2.87,2.87v9H39.75A4,4,0,0,0,36,15.47L33.3,22.4H29.93A1.78,1.78,0,0,0,28.16,24.18Z"/><line class="cls-1" x1="19.31" y1="13.17" x2="13.62" y2="18.86"/><circle class="cls-1" cx="13.11" cy="12.66" r="1.81"/><circle class="cls-1" cx="19.81" cy="19.36" r="1.81"/><circle class="cls-1" cx="16.46" cy="16.01" r="10.6"/><line class="cls-1" x1="8.79" y1="33.33" x2="20.34" y2="33.33"/><line class="cls-1" x1="8.62" y1="40.38" x2="40.26" y2="40.38"/><line class="cls-1" x1="8.62" y1="46.25" x2="40.26" y2="46.25"/><path class="cls-1" d="M40.26,58,38,54.86a1.25,1.25,0,0,0-2.19.3l-.38,1.05a1.24,1.24,0,0,1-2,.49L30.52,54a1.25,1.25,0,0,0-1.92.25l-1,1.67A4.53,4.53,0,0,1,24.39,58l-1.93.28"/><path class="cls-1" d="M61.29,24.18V30.4a1.78,1.78,0,0,1-1.77,1.78H56.86a3.24,3.24,0,1,0-6.48,0H39.06a3.24,3.24,0,1,0-6.47,0H29.93a1.78,1.78,0,0,1-1.77-1.78V24.18a1.78,1.78,0,0,1,1.77-1.78H33.3L36,15.47a4,4,0,0,1,3.79-2.61h10a4,4,0,0,1,3.79,2.61l2.66,6.93h3.37A1.78,1.78,0,0,1,61.29,24.18Z"/><circle class="cls-1" cx="35.82" cy="32.17" r="3.23"/><path class="cls-1" d="M56.86,32.17a3.24,3.24,0,1,1-3.23-3.23A3.23,3.23,0,0,1,56.86,32.17Z"/><line class="cls-1" x1="33.31" y1="22.4" x2="56.14" y2="22.4"/><line class="cls-1" x1="44.72" y1="22.4" x2="44.72" y2="12.86"/></g></g></svg>