<svg xmlns="http://www.w3.org/2000/svg" viewBox="0 0 64.88 55.19"><defs><style>.cls-1{fill:none;stroke:#000;stroke-linecap:round;stroke-linejoin:round;stroke-width:2px;}</style></defs><title>Asset 42</title><g id="Layer_2" data-name="Layer 2"><g id="Layer_2-2" data-name="Layer 2"><path class="cls-1" d="M59.84,4.86V32a12.83,12.83,0,0,0-21.62,9.34c0,.2,0,.41,0,.6H4.86A3.86,3.86,0,0,1,1,38.11V4.86A3.86,3.86,0,0,1,4.86,1H56A3.86,3.86,0,0,1,59.84,4.86Z"/><rect class="cls-1" x="1" y="9.99" width="58.84" height="9.82"/><line class="cls-1" x1="6.23" y1="31.06" x2="13.14" y2="31.06"/><line class="cls-1" x1="6.23" y1="36.12" x2="17.07" y2="36.12"/><path class="cls-1" d="M63.88,41.37a12.83,12.83,0,0,1-25.64.6c0-.19,0-.4,0-.6a12.83,12.83,0,0,1,25.66,0Z"/><line class="cls-1" x1="46.16" y1="36.48" x2="55.94" y2="46.25"/><line class="cls-1" x1="55.94" y1="36.48" x2="46.16" y2="46.25"/></g></g></svg>