<svg xmlns="http://www.w3.org/2000/svg" viewBox="0 0 64.88 57.77"><defs><style>.cls-1{fill:none;stroke:#000;stroke-linecap:round;stroke-linejoin:round;stroke-width:2px;}</style></defs><title>Asset 63</title><g id="Layer_2" data-name="Layer 2"><g id="Layer_2-2" data-name="Layer 2"><path class="cls-1" d="M63.88,41.28a15.48,15.48,0,0,1-28,9.15,15.43,15.43,0,0,1-3-9.15,15.49,15.49,0,0,1,8.64-13.89,15.17,15.17,0,0,1,6.34-1.57,4.1,4.1,0,0,1,.5,0A15.5,15.5,0,0,1,63.88,41.28Z"/><rect class="cls-1" x="4.69" y="1" width="6.34" height="44.25" rx="2.64"/><rect class="cls-1" x="16.98" y="14.72" width="6.34" height="30.53" rx="2.64"/><path class="cls-1" d="M35.61,32.56a15.41,15.41,0,0,0-2.69,8.72,15.71,15.71,0,0,0,.51,4H30.86a1.6,1.6,0,0,1-1.59-1.6V21.46a1.59,1.59,0,0,1,1.59-1.59H34a1.59,1.59,0,0,1,1.6,1.59Z"/><path class="cls-1" d="M47.9,2.59V25.82a15.17,15.17,0,0,0-6.34,1.57V2.59A1.59,1.59,0,0,1,43.16,1H46.3A1.6,1.6,0,0,1,47.9,2.59Z"/><path class="cls-1" d="M48.4,56.77H2.59A1.6,1.6,0,0,1,1,55.17V52a1.59,1.59,0,0,1,1.59-1.59H35.9A15.47,15.47,0,0,0,48.4,56.77Z"/><path class="cls-1" d="M63.88,52v3.15a1.6,1.6,0,0,1-1.6,1.6H48.4a15.45,15.45,0,0,0,12.49-6.34h1.39A1.59,1.59,0,0,1,63.88,52Z"/><path class="cls-1" d="M60.19,11.78V31.26a15.52,15.52,0,0,0-6.34-4.47v-15a1.6,1.6,0,0,1,1.6-1.59h3.14A1.59,1.59,0,0,1,60.19,11.78Z"/><circle class="cls-1" cx="43.45" cy="36.33" r="2.91"/><circle class="cls-1" cx="53.35" cy="46.23" r="2.91"/><line class="cls-1" x1="54.13" y1="35.55" x2="42.66" y2="47.02"/></g></g></svg>