<svg xmlns="http://www.w3.org/2000/svg" viewBox="0 0 39.74 64.88"><defs><style>.cls-1{fill:none;stroke:#000;stroke-linecap:round;stroke-linejoin:round;stroke-width:2px;}</style></defs><title>Asset 18</title><g id="Layer_2" data-name="Layer 2"><g id="Layer_2-2" data-name="Layer 2"><rect class="cls-1" x="1" y="11.66" width="37.74" height="52.22" rx="3.25"/><polygon class="cls-1" points="33.75 1 29.12 4.15 24.49 1 19.86 4.15 15.24 1 10.62 4.15 5.99 1 5.99 11.66 33.75 11.66 33.75 1"/><rect class="cls-1" x="5.32" y="16.58" width="29.11" height="14.67" rx="1.03"/><rect class="cls-1" x="5.32" y="35.48" width="6.35" height="4.86" rx="1.03"/><rect class="cls-1" x="16.7" y="35.48" width="6.35" height="4.86" rx="1.03"/><rect class="cls-1" x="28.08" y="35.48" width="6.35" height="4.86" rx="1.03"/><rect class="cls-1" x="5.32" y="44.79" width="6.35" height="4.86" rx="1.03"/><rect class="cls-1" x="16.7" y="44.79" width="6.35" height="4.86" rx="1.03"/><rect class="cls-1" x="28.08" y="44.79" width="6.35" height="4.86" rx="1.03"/><rect class="cls-1" x="5.32" y="54.09" width="6.35" height="4.86" rx="1.03"/><rect class="cls-1" x="16.7" y="54.09" width="6.35" height="4.86" rx="1.03"/><rect class="cls-1" x="28.08" y="54.09" width="6.35" height="4.86" rx="1.03"/></g></g></svg>