<svg xmlns="http://www.w3.org/2000/svg" viewBox="0 0 59.27 64.83"><defs><style>.cls-1{fill:none;stroke:#000;stroke-linecap:round;stroke-linejoin:round;stroke-width:2px;}</style></defs><title>Asset 35</title><g id="Layer_2" data-name="Layer 2"><g id="Layer_2-2" data-name="Layer 2"><path class="cls-1" d="M22.82,19.21h3.3a1,1,0,0,0,1-1V16.33a1,1,0,0,0-1-1H23.78a1,1,0,0,1-1-1V12.48a1,1,0,0,1,1-1h3.3"/><line class="cls-1" x1="24.95" y1="11.52" x2="24.95" y2="9.59"/><line class="cls-1" x1="24.95" y1="19.21" x2="24.95" y2="21.14"/><circle class="cls-1" cx="24.95" cy="15.36" r="8.83"/><path class="cls-1" d="M40.57,36.18v8.94a3.22,3.22,0,0,0,3.21,3.22H48.9V60.28a3.55,3.55,0,0,1-3.55,3.55H4.55A3.55,3.55,0,0,1,1,60.28V4.55A3.55,3.55,0,0,1,4.55,1h40.8A3.55,3.55,0,0,1,48.9,4.55v18A5.18,5.18,0,0,0,45.72,24a5.24,5.24,0,0,0-1.53,3.7V33h-.41A3.22,3.22,0,0,0,40.57,36.18Z"/><line class="cls-1" x1="8.2" y1="29.61" x2="41.7" y2="29.61"/><line class="cls-1" x1="8.2" y1="35.85" x2="40.58" y2="35.85"/><line class="cls-1" x1="8.2" y1="42.1" x2="40.58" y2="42.1"/><line class="cls-1" x1="8.2" y1="48.34" x2="26.21" y2="48.34"/><path class="cls-1" d="M58.27,36.18v8.94a3.22,3.22,0,0,1-3.21,3.22H43.78a3.22,3.22,0,0,1-3.21-3.22V36.18A3.22,3.22,0,0,1,43.78,33H55.06A3.22,3.22,0,0,1,58.27,36.18Z"/><circle class="cls-1" cx="49.42" cy="40.65" r="3.78"/><path class="cls-1" d="M48.9,22.53l.52,0a5.23,5.23,0,0,1,5.23,5.23"/></g></g></svg>