<svg xmlns="http://www.w3.org/2000/svg" viewBox="0 0 54.59 64.88"><defs><style>.cls-1{fill:none;stroke:#000;stroke-linecap:round;stroke-linejoin:round;stroke-width:2px;}</style></defs><title>Asset 58</title><g id="Layer_2" data-name="Layer 2"><g id="Layer_2-2" data-name="Layer 2"><path class="cls-1" d="M27,1.09,2.85,15.77a.6.6,0,0,0,.31,1.12H51.43a.6.6,0,0,0,.31-1.12L27.61,1.09A.6.6,0,0,0,27,1.09Z"/><path class="cls-1" d="M4.21,16.89H50.39a0,0,0,0,1,0,0v2.38a2.85,2.85,0,0,1-2.85,2.85H7.06a2.85,2.85,0,0,1-2.85-2.85V16.89A0,0,0,0,1,4.21,16.89Z"/><path class="cls-1" d="M7.06,52H47.55a2.85,2.85,0,0,1,2.85,2.85v2.38a0,0,0,0,1,0,0H4.21a0,0,0,0,1,0,0V54.85A2.85,2.85,0,0,1,7.06,52Z"/><rect class="cls-1" x="1" y="57.23" width="52.59" height="6.65" rx="2.85"/><rect class="cls-1" x="8.88" y="27.13" width="6.22" height="19.86"/><rect class="cls-1" x="39.5" y="27.13" width="6.22" height="19.86"/><path class="cls-1" d="M6.77,22.11H17.21a0,0,0,0,1,0,0v3.17a1.85,1.85,0,0,1-1.85,1.85H8.63a1.85,1.85,0,0,1-1.85-1.85V22.11A0,0,0,0,1,6.77,22.11Z"/><path class="cls-1" d="M8.63,47h6.74a1.85,1.85,0,0,1,1.85,1.85V52a0,0,0,0,1,0,0H6.77a0,0,0,0,1,0,0V48.84A1.85,1.85,0,0,1,8.63,47Z"/><path class="cls-1" d="M39.24,47H46a1.85,1.85,0,0,1,1.85,1.85V52a0,0,0,0,1,0,0H37.39a0,0,0,0,1,0,0V48.84A1.85,1.85,0,0,1,39.24,47Z"/><path class="cls-1" d="M37.39,22.11H47.83a0,0,0,0,1,0,0v3.17A1.85,1.85,0,0,1,46,27.13H39.24a1.85,1.85,0,0,1-1.85-1.85V22.11A0,0,0,0,1,37.39,22.11Z"/><circle class="cls-1" cx="27.3" cy="10.04" r="2.94"/></g></g></svg>