<svg xmlns="http://www.w3.org/2000/svg" viewBox="0 0 64.88 63.71"><defs><style>.cls-1{fill:none;stroke:#000;stroke-linecap:round;stroke-linejoin:round;stroke-width:2px;}</style></defs><title>Asset 33</title><g id="Layer_2" data-name="Layer 2"><g id="Layer_2-2" data-name="Layer 2"><rect class="cls-1" x="1" y="1" width="62.88" height="46.23" rx="8.54"/><rect class="cls-1" x="27.77" y="47.23" width="9.35" height="8.47"/><path class="cls-1" d="M24.09,55.75h16.7a4.12,4.12,0,0,1,4.12,4.12v2.85a0,0,0,0,1,0,0H20a0,0,0,0,1,0,0V59.86A4.12,4.12,0,0,1,24.09,55.75Z"/><polygon class="cls-1" points="45.48 10.12 33.11 19.7 45.48 19.7 57.84 19.7 45.48 10.12"/><rect class="cls-1" x="33.11" y="32.48" width="24.73" height="5.11" rx="2.55"/><line class="cls-1" x1="7.68" y1="9.98" x2="17.76" y2="9.98"/><line class="cls-1" x1="7.68" y1="18.86" x2="21.89" y2="18.86"/><line class="cls-1" x1="7.68" y1="25.32" x2="26.27" y2="25.32"/><line class="cls-1" x1="7.68" y1="31.79" x2="26.27" y2="31.79"/><line class="cls-1" x1="7.68" y1="38.25" x2="26.27" y2="38.25"/><line class="cls-1" x1="35.66" y1="32.48" x2="35.66" y2="19.7"/><line class="cls-1" x1="55.29" y1="32.48" x2="55.29" y2="19.7"/><line class="cls-1" x1="45.47" y1="32.48" x2="45.47" y2="19.7"/></g></g></svg>