<svg xmlns="http://www.w3.org/2000/svg" viewBox="0 0 64.88 60.67"><defs><style>.cls-1{fill:none;stroke:#000;stroke-linecap:round;stroke-linejoin:round;stroke-width:2px;}</style></defs><title>Asset 14</title><g id="Layer_2" data-name="Layer 2"><g id="Layer_2-2" data-name="Layer 2"><path class="cls-1" d="M63.88,35.52V57.8A1.87,1.87,0,0,1,62,59.67H2.87A1.87,1.87,0,0,1,1,57.8V35.52H20.7l.85,4.22a2,2,0,0,0,1.94,1.58h17.9a2,2,0,0,0,1.94-1.58l.85-4.22Z"/><rect class="cls-1" x="23.65" y="47.13" width="17.59" height="6.74" rx="1.61"/><path class="cls-1" d="M53.15,35.52V25.9A1.87,1.87,0,0,0,51.28,24H13.6a1.87,1.87,0,0,0-1.86,1.88v9.62H1L6.53,6.25A1.88,1.88,0,0,1,8.37,4.73H21.05V12.5H43.84V4.73H56.51a1.89,1.89,0,0,1,1.84,1.52l5.53,29.27Z"/><path class="cls-1" d="M53.15,25.9v9.62h-9l-.85,4.22a2,2,0,0,1-1.94,1.58H23.48a2,2,0,0,1-1.93-1.58l-.85-4.22h-9V25.9A1.87,1.87,0,0,1,13.6,24H51.28A1.87,1.87,0,0,1,53.15,25.9Z"/><path class="cls-1" d="M18,12.51H46.89a1.61,1.61,0,0,1,1.61,1.61V24a0,0,0,0,1,0,0H16.39a0,0,0,0,1,0,0v-9.9A1.61,1.61,0,0,1,18,12.51Z"/><path class="cls-1" d="M43.84,2.87V12.5H21.05V2.87A1.87,1.87,0,0,1,22.92,1H42A1.87,1.87,0,0,1,43.84,2.87Z"/></g></g></svg>