<svg xmlns="http://www.w3.org/2000/svg" viewBox="0 0 64.88 59.64"><defs><style>.cls-1{fill:none;stroke:#000;stroke-linecap:round;stroke-linejoin:round;stroke-width:2px;}</style></defs><title>Asset 56</title><g id="Layer_2" data-name="Layer 2"><g id="Layer_2-2" data-name="Layer 2"><path class="cls-1" d="M53.21,9.21v6.11c-.34,0-.68-.05-1-.05a11.62,11.62,0,0,0-7.84,3H1V9.21A3.39,3.39,0,0,1,4.39,5.82h5V8a2.66,2.66,0,1,0,5.31,0V5.82h9.77V8a2.66,2.66,0,1,0,5.31,0V5.82h9.77V8a2.66,2.66,0,1,0,5.31,0V5.82h5A3.39,3.39,0,0,1,53.21,9.21Z"/><path class="cls-1" d="M53.21,38.62V55.25a3.38,3.38,0,0,1-3.38,3.39H4.39A3.38,3.38,0,0,1,1,55.25v-37H44.34a11.69,11.69,0,0,0,7.84,20.38A8.77,8.77,0,0,0,53.21,38.62Z"/><path class="cls-1" d="M14.68,3.66V8A2.66,2.66,0,1,1,9.37,8V3.66A2.65,2.65,0,0,1,13.9,1.78,2.62,2.62,0,0,1,14.68,3.66Z"/><path class="cls-1" d="M29.76,3.66V8a2.66,2.66,0,1,1-5.31,0V3.66A2.65,2.65,0,0,1,29,1.78,2.62,2.62,0,0,1,29.76,3.66Z"/><path class="cls-1" d="M44.84,3.66V8a2.66,2.66,0,1,1-5.31,0V3.66a2.65,2.65,0,0,1,4.53-1.88A2.62,2.62,0,0,1,44.84,3.66Z"/><rect class="cls-1" x="5.13" y="22.42" width="7.17" height="7.17" rx="3"/><rect class="cls-1" x="17.39" y="22.42" width="7.17" height="7.17" rx="3"/><rect class="cls-1" x="29.65" y="22.42" width="7.17" height="7.17" rx="3"/><rect class="cls-1" x="5.13" y="34.81" width="7.17" height="7.17" rx="3"/><rect class="cls-1" x="17.39" y="34.81" width="7.17" height="7.17" rx="3"/><rect class="cls-1" x="29.65" y="34.81" width="7.17" height="7.17" rx="3"/><path class="cls-1" d="M49.08,38.26v1.86A1.86,1.86,0,0,1,47.22,42H43.76a1.86,1.86,0,0,1-1.86-1.86V36.67a1.86,1.86,0,0,1,1.61-1.84A11.73,11.73,0,0,0,49.08,38.26Z"/><rect class="cls-1" x="5.13" y="47.2" width="7.17" height="7.17" rx="3"/><rect class="cls-1" x="17.39" y="47.2" width="7.17" height="7.17" rx="3"/><rect class="cls-1" x="29.65" y="47.2" width="7.17" height="7.17" rx="3"/><rect class="cls-1" x="41.9" y="47.2" width="7.17" height="7.17" rx="3"/><path class="cls-1" d="M49.46,29.7A2.72,2.72,0,1,0,52.18,27a2.72,2.72,0,1,1,2.72-2.72"/><line class="cls-1" x1="52.18" y1="21.53" x2="52.18" y2="19.14"/><line class="cls-1" x1="52.18" y1="34.81" x2="52.18" y2="32.42"/><path class="cls-1" d="M63.88,27A11.68,11.68,0,0,1,53.21,38.62a8.77,8.77,0,0,1-1,.05,11.7,11.7,0,0,1,0-23.4c.35,0,.69,0,1,.05A11.69,11.69,0,0,1,63.88,27Z"/></g></g></svg>