<svg xmlns="http://www.w3.org/2000/svg" viewBox="0 0 55.97 64.01"><defs><style>.cls-1{fill:none;stroke:#000;stroke-linecap:round;stroke-linejoin:round;stroke-width:2px;}</style></defs><title>Asset 15</title><g id="Layer_2" data-name="Layer 2"><g id="Layer_2-2" data-name="Layer 2"><path class="cls-1" d="M23.58,44H30.4a2,2,0,0,0,2-2V38a2,2,0,0,0-2-2H25.57a2,2,0,0,1-2-2v-4a2,2,0,0,1,2-2h6.81"/><line class="cls-1" x1="27.98" y1="28.08" x2="27.98" y2="24.08"/><line class="cls-1" x1="27.98" y1="43.97" x2="27.98" y2="47.96"/><path class="cls-1" d="M55,36A27,27,0,1,1,23.72,9.37,27.34,27.34,0,0,1,28,9,26.93,26.93,0,0,1,55,36Z"/><path class="cls-1" d="M32.24,5.26V9.37A27,27,0,0,0,28,9a27.34,27.34,0,0,0-4.27.33V5.26a4.26,4.26,0,1,1,8.52,0Z"/><circle class="cls-1" cx="27.98" cy="36.02" r="21.91"/></g></g></svg>