<svg xmlns="http://www.w3.org/2000/svg" viewBox="0 0 64.88 42.27"><defs><style>.cls-1{fill:none;stroke:#000;stroke-linecap:round;stroke-linejoin:round;stroke-width:2px;}</style></defs><title>Asset 54</title><g id="Layer_2" data-name="Layer 2"><g id="Layer_2-2" data-name="Layer 2"><rect class="cls-1" x="1" y="1" width="62.88" height="40.27" rx="5.25"/><rect class="cls-1" x="6.78" y="6.68" width="24.83" height="28.9"/><path class="cls-1" d="M23.91,17.85a4.72,4.72,0,1,1-4.72-4.72A4.73,4.73,0,0,1,23.91,17.85Z"/><path class="cls-1" d="M28.17,29.14H10.23A7.19,7.19,0,0,1,16.88,22a4.77,4.77,0,0,0,4.63,0A7.2,7.2,0,0,1,28.17,29.14Z"/><line class="cls-1" x1="37.04" y1="11.56" x2="41.44" y2="11.56"/><line class="cls-1" x1="37.04" y1="17.94" x2="41.44" y2="17.94"/><line class="cls-1" x1="37.04" y1="24.33" x2="41.44" y2="24.33"/><line class="cls-1" x1="37.04" y1="30.71" x2="41.44" y2="30.71"/><line class="cls-1" x1="46.1" y1="11.56" x2="58.1" y2="11.56"/><line class="cls-1" x1="46.1" y1="17.85" x2="58.1" y2="17.85"/><line class="cls-1" x1="46.1" y1="24.13" x2="58.1" y2="24.13"/><line class="cls-1" x1="46.1" y1="30.42" x2="58.1" y2="30.42"/></g></g></svg>