<svg xmlns="http://www.w3.org/2000/svg" viewBox="0 0 64.88 60.22"><defs><style>.cls-1{fill:none;stroke:#000;stroke-linecap:round;stroke-linejoin:round;stroke-width:2px;}</style></defs><title>Asset 8</title><g id="Layer_2" data-name="Layer 2"><g id="Layer_2-2" data-name="Layer 2"><path class="cls-1" d="M11.79,50.87h3.69a1.23,1.23,0,0,0,1.24-1.24V47.21A1.24,1.24,0,0,0,15.48,46H13a1.23,1.23,0,0,1-1.24-1.24V42.3A1.23,1.23,0,0,1,13,41.06h3.69"/><line class="cls-1" x1="14.26" y1="41.06" x2="14.26" y2="38.44"/><line class="cls-1" x1="14.26" y1="53.49" x2="14.26" y2="50.87"/><path class="cls-1" d="M62.75,17.14l-5.35,2.8-18,9.39a2.14,2.14,0,0,1-1.94,0l-18-9.39-5.35-2.8a2.09,2.09,0,0,1,0-3.72L37.45,1.24a2.08,2.08,0,0,1,1.94,0L62.75,13.42A2.1,2.1,0,0,1,62.75,17.14Z"/><circle class="cls-1" cx="38.42" cy="15.28" r="3.48"/><path class="cls-1" d="M57.4,19.94V37.5a4,4,0,0,1-4,4H26.76a13.35,13.35,0,0,0-7.31-7.78V19.94l18,9.39a2.14,2.14,0,0,0,1.94,0Z"/><polyline class="cls-1" points="41.9 15.28 63.88 15.28 63.88 24.01"/><path class="cls-1" d="M27.51,46A13.26,13.26,0,1,1,14.26,32.71a13.23,13.23,0,0,1,12.5,8.83A13.46,13.46,0,0,1,27.51,46Z"/></g></g></svg>