<svg xmlns="http://www.w3.org/2000/svg" viewBox="0 0 64.88 64.88"><defs><style>.cls-1{fill:none;stroke:#000;stroke-linecap:round;stroke-linejoin:round;stroke-width:2px;}</style></defs><title>Asset 43</title><g id="Layer_2" data-name="Layer 2"><g id="Layer_2-2" data-name="Layer 2"><path class="cls-1" d="M26.35,43.44h9.43a2.75,2.75,0,0,0,2.75-2.75v-5.5a2.75,2.75,0,0,0-2.75-2.75H29.1a2.75,2.75,0,0,1-2.75-2.75v-5.5a2.75,2.75,0,0,1,2.75-2.75h9.43"/><line class="cls-1" x1="32.44" y1="21.44" x2="32.44" y2="15.9"/><line class="cls-1" x1="32.44" y1="43.44" x2="32.44" y2="48.98"/><circle class="cls-1" cx="32.44" cy="32.44" r="31.44"/><path class="cls-1" d="M13.39,19A23.3,23.3,0,0,1,55.74,32.44"/><path class="cls-1" d="M51.49,45.87A23.3,23.3,0,0,1,9.14,32.44"/><polyline class="cls-1" points="5.83 35.74 9.13 32.44 12.44 35.74"/><polyline class="cls-1" points="59.05 29.14 55.74 32.44 52.44 29.14"/></g></g></svg>