<svg xmlns="http://www.w3.org/2000/svg" viewBox="0 0 46.03 64.8"><defs><style>.cls-1{fill:none;stroke:#000;stroke-linecap:round;stroke-linejoin:round;stroke-width:2px;}</style></defs><title>Asset 64</title><g id="Layer_2" data-name="Layer 2"><g id="Layer_2-2" data-name="Layer 2"><path class="cls-1" d="M22,23.92h4.3a1.25,1.25,0,0,0,1.25-1.25V20.16a1.26,1.26,0,0,0-1.25-1.26H23.21A1.25,1.25,0,0,1,22,17.65V15.14a1.25,1.25,0,0,1,1.25-1.25h4.3"/><circle class="cls-1" cx="24.73" cy="18.9" r="13.11"/><circle class="cls-1" cx="24.73" cy="18.9" r="17.9"/><line class="cls-1" x1="24.73" y1="13.89" x2="24.73" y2="11.36"/><line class="cls-1" x1="24.73" y1="23.92" x2="24.73" y2="26.44"/><rect class="cls-1" x="5.87" y="36.81" width="39.16" height="9" rx="4.5" transform="translate(50.9 82.61) rotate(-180)"/><line class="cls-1" x1="38.63" y1="36.81" x2="38.63" y2="45.8"/><line class="cls-1" x1="32.04" y1="36.81" x2="32.04" y2="45.8"/><line class="cls-1" x1="25.45" y1="36.81" x2="25.45" y2="45.8"/><line class="cls-1" x1="18.86" y1="36.81" x2="18.86" y2="45.8"/><line class="cls-1" x1="12.27" y1="36.81" x2="12.27" y2="45.8"/><rect class="cls-1" x="1" y="45.8" width="39.16" height="9" rx="4.5" transform="translate(41.16 100.61) rotate(-180)"/><line class="cls-1" x1="33.76" y1="45.8" x2="33.76" y2="54.8"/><line class="cls-1" x1="27.17" y1="45.8" x2="27.17" y2="54.8"/><line class="cls-1" x1="20.58" y1="45.8" x2="20.58" y2="54.8"/><line class="cls-1" x1="13.99" y1="45.8" x2="13.99" y2="54.8"/><line class="cls-1" x1="7.4" y1="45.8" x2="7.4" y2="54.8"/><rect class="cls-1" x="5.87" y="54.8" width="39.16" height="9" rx="4.5" transform="translate(50.9 118.6) rotate(-180)"/><line class="cls-1" x1="38.63" y1="54.8" x2="38.63" y2="63.8"/><line class="cls-1" x1="32.04" y1="54.8" x2="32.04" y2="63.8"/><line class="cls-1" x1="25.45" y1="54.8" x2="25.45" y2="63.8"/><line class="cls-1" x1="18.86" y1="54.8" x2="18.86" y2="63.8"/><line class="cls-1" x1="12.27" y1="54.8" x2="12.27" y2="63.8"/></g></g></svg>