<svg xmlns="http://www.w3.org/2000/svg" viewBox="0 0 49.94 64.88"><defs><style>.cls-1{fill:none;stroke:#000;stroke-linecap:round;stroke-linejoin:round;stroke-width:2px;}</style></defs><title>Asset 45</title><g id="Layer_2" data-name="Layer 2"><g id="Layer_2-2" data-name="Layer 2"><path class="cls-1" d="M22.84,19.22h3.3a1,1,0,0,0,1-1V16.34a1,1,0,0,0-1-1H23.8a1,1,0,0,1-1-1V12.49a1,1,0,0,1,1-1h3.3"/><line class="cls-1" x1="24.97" y1="11.53" x2="24.97" y2="9.6"/><line class="cls-1" x1="24.97" y1="19.22" x2="24.97" y2="21.16"/><circle class="cls-1" cx="24.97" cy="15.38" r="8.84"/><rect class="cls-1" x="1" y="1" width="47.94" height="62.88" rx="6.89"/><path class="cls-1" d="M43.49,57.49,41,54.06a1.36,1.36,0,0,0-2.38.34l-.41,1.14a1.36,1.36,0,0,1-2.21.53l-3.14-3a1.36,1.36,0,0,0-2.09.27l-1.12,1.81a4.89,4.89,0,0,1-3.46,2.28l-2.1.31"/><line class="cls-1" x1="8.21" y1="29.63" x2="41.73" y2="29.63"/><line class="cls-1" x1="8.21" y1="35.88" x2="41.73" y2="35.88"/><line class="cls-1" x1="8.21" y1="42.13" x2="41.73" y2="42.13"/><line class="cls-1" x1="8.21" y1="48.38" x2="26.23" y2="48.38"/></g></g></svg>