<svg xmlns="http://www.w3.org/2000/svg" viewBox="0 0 64.88 60.31"><defs><style>.cls-1{fill:none;stroke:#000;stroke-linecap:round;stroke-linejoin:round;stroke-width:2px;}</style></defs><title>Asset 6</title><g id="Layer_2" data-name="Layer 2"><g id="Layer_2-2" data-name="Layer 2"><circle class="cls-1" cx="8.63" cy="8.63" r="2.15"/><circle class="cls-1" cx="16.47" cy="16.47" r="2.15"/><line class="cls-1" x1="16.1" y1="9" x2="9" y2="16.1"/><circle class="cls-1" cx="12.55" cy="12.55" r="11.55"/><rect class="cls-1" x="12.55" y="53.89" width="51.33" height="5.42" rx="1.73"/><rect class="cls-1" x="15.62" y="33.28" width="7.12" height="11.93"/><line class="cls-1" x1="19.17" y1="33.28" x2="19.17" y2="28.86"/><line class="cls-1" x1="19.17" y1="49.63" x2="19.17" y2="45.21"/><rect class="cls-1" x="26.91" y="20.67" width="7.12" height="11.93"/><line class="cls-1" x1="30.47" y1="20.67" x2="30.47" y2="16.25"/><line class="cls-1" x1="30.47" y1="37.02" x2="30.47" y2="32.6"/><rect class="cls-1" x="38.2" y="8.06" width="7.12" height="11.93"/><line class="cls-1" x1="41.76" y1="8.06" x2="41.76" y2="3.64"/><line class="cls-1" x1="41.76" y1="24.42" x2="41.76" y2="20"/><rect class="cls-1" x="49.5" y="28.13" width="7.12" height="11.93"/><line class="cls-1" x1="53.06" y1="28.13" x2="53.06" y2="23.71"/><line class="cls-1" x1="53.06" y1="44.48" x2="53.06" y2="40.07"/></g></g></svg>