<svg xmlns="http://www.w3.org/2000/svg" viewBox="0 0 64.88 54.14"><defs><style>.cls-1{fill:none;stroke:#000;stroke-linecap:round;stroke-linejoin:round;stroke-width:2px;}</style></defs><title>Asset 60</title><g id="Layer_2" data-name="Layer 2"><g id="Layer_2-2" data-name="Layer 2"><path class="cls-1" d="M6.82,33.94h5.35a1.56,1.56,0,0,0,1.56-1.56V29.26a1.56,1.56,0,0,0-1.56-1.56H8.38a1.56,1.56,0,0,1-1.56-1.56V23a1.55,1.55,0,0,1,1.56-1.55h5.35"/><line class="cls-1" x1="10.27" y1="21.47" x2="10.27" y2="18.33"/><line class="cls-1" x1="10.27" y1="33.94" x2="10.27" y2="37.08"/><rect class="cls-1" x="1" y="12.04" width="62.88" height="41.1" rx="6.91"/><rect class="cls-1" x="20.63" y="40.13" width="37.18" height="7.19" rx="2.33"/><line class="cls-1" x1="25.46" y1="33.66" x2="52.98" y2="33.66"/><line class="cls-1" x1="25.46" y1="27.7" x2="52.98" y2="27.7"/><line class="cls-1" x1="25.46" y1="21.75" x2="52.98" y2="21.75"/><path class="cls-1" d="M11.08,1H48.81a0,0,0,0,1,0,0V7.27a0,0,0,0,1,0,0H11.08A3.13,3.13,0,0,1,7.95,4.13v0A3.13,3.13,0,0,1,11.08,1Z"/><polygon class="cls-1" points="48.81 1 48.81 7.27 56.93 4.13 48.81 1"/><line class="cls-1" x1="14.63" y1="1" x2="14.63" y2="7.27"/></g></g></svg>