<svg xmlns="http://www.w3.org/2000/svg" viewBox="0 0 51.01 64.55"><defs><style>.cls-1{fill:none;stroke:#000;stroke-linecap:round;stroke-linejoin:round;stroke-width:2px;}</style></defs><title>Asset 50</title><g id="Layer_2" data-name="Layer 2"><g id="Layer_2-2" data-name="Layer 2"><path class="cls-1" d="M21.75,39.06h5.82a1.7,1.7,0,0,0,1.69-1.7V34a1.69,1.69,0,0,0-1.69-1.69H23.44a1.7,1.7,0,0,1-1.69-1.7V27.19a1.7,1.7,0,0,1,1.69-1.7h5.82"/><line class="cls-1" x1="25.5" y1="25.49" x2="25.5" y2="22.08"/><line class="cls-1" x1="25.5" y1="39.06" x2="25.5" y2="42.47"/><path class="cls-1" d="M25.5,8.21S18.41,17.45,6.69,18.44V38.91S7.88,53.57,25.5,57.56c17.63-4,18.82-18.65,18.82-18.65V18.44C32.6,17.45,25.5,8.21,25.5,8.21Z"/><path class="cls-1" d="M25.5,1S16.26,13,1,14.33V39.26s1.55,19.1,24.5,24.29C48.46,58.36,50,39.26,50,39.26V14.33C34.75,13,25.5,1,25.5,1Z"/></g></g></svg>