<svg xmlns="http://www.w3.org/2000/svg" viewBox="0 0 64.88 56.56"><defs><style>.cls-1{fill:none;stroke:#000;stroke-linecap:round;stroke-linejoin:round;stroke-width:2px;}</style></defs><title>Asset 49</title><g id="Layer_2" data-name="Layer 2"><g id="Layer_2-2" data-name="Layer 2"><path class="cls-1" d="M63.88,3.39V38.5H1V3.39A2.39,2.39,0,0,1,3.39,1h58.1A2.39,2.39,0,0,1,63.88,3.39Z"/><rect class="cls-1" x="1" y="38.5" width="62.88" height="8.53"/><path class="cls-1" d="M63.88,47v6.14a2.39,2.39,0,0,1-2.39,2.39H3.39A2.39,2.39,0,0,1,1,53.17V47Z"/><path class="cls-1" d="M58,26.84V12.66a5.76,5.76,0,0,1-5.76-5.77H12.66a5.77,5.77,0,0,1-5.77,5.77V26.84a5.77,5.77,0,0,1,5.77,5.77H52.22A5.76,5.76,0,0,1,58,26.84Z"/><circle class="cls-1" cx="32.44" cy="19.75" r="6.74"/><circle class="cls-1" cx="17.08" cy="19.75" r="2.58"/><circle class="cls-1" cx="47.79" cy="19.75" r="2.58"/></g></g></svg>