<svg xmlns="http://www.w3.org/2000/svg" viewBox="0 0 64.88 57.58"><defs><style>.cls-1{fill:none;stroke:#000;stroke-linecap:round;stroke-linejoin:round;stroke-width:2px;}</style></defs><title>Asset 10</title><g id="Layer_2" data-name="Layer 2"><g id="Layer_2-2" data-name="Layer 2"><path class="cls-1" d="M63.88,23V53.5a3.08,3.08,0,0,1-3.07,3.08H4.07A3.07,3.07,0,0,1,1,53.5V14.76a3.07,3.07,0,0,1,3.07-3.07H20.9a3,3,0,0,1,2.38,1.19l4.43,5.86a3,3,0,0,0,2.39,1.18H60.81A3.08,3.08,0,0,1,63.88,23Z"/><path class="cls-1" d="M58.19,4.07V19.92H30.1a3,3,0,0,1-2.39-1.18l-4.43-5.86a3,3,0,0,0-2.38-1.19H6.69V4.07A3.06,3.06,0,0,1,9.76,1H55.12A3.07,3.07,0,0,1,58.19,4.07Z"/><line class="cls-1" x1="55.69" y1="48.57" x2="38.53" y2="48.57"/><line class="cls-1" x1="55.69" y1="42.79" x2="47.11" y2="42.79"/></g></g></svg>