<svg xmlns="http://www.w3.org/2000/svg" viewBox="0 0 64.48 62.28"><defs><style>.cls-1{fill:none;stroke:#000;stroke-linecap:round;stroke-linejoin:round;stroke-width:2px;}</style></defs><title>Asset 19</title><g id="Layer_2" data-name="Layer 2"><g id="Layer_2-2" data-name="Layer 2"><path class="cls-1" d="M5,42.55a10.25,10.25,0,0,0,11.07,8.66,10.51,10.51,0,0,0,9.25-9l.21-1.36a2.24,2.24,0,0,0-2.22-2.58H7a2.24,2.24,0,0,0-2.21,2.58Z"/><path class="cls-1" d="M29.15,17.34A14.18,14.18,0,0,0,15,1C6.34,1.06-.15,9.11,1.17,17.71l2,13.11a2.25,2.25,0,0,0,2.22,1.91H24.86a2.25,2.25,0,0,0,2.22-1.91Z"/><path class="cls-1" d="M39.15,52.59a10.26,10.26,0,0,0,11.08,8.65,10.5,10.5,0,0,0,9.25-9l.21-1.36a2.25,2.25,0,0,0-2.22-2.58H41.11a2.24,2.24,0,0,0-2.22,2.58Z"/><path class="cls-1" d="M63.31,27.37A14.19,14.19,0,0,0,49.19,11c-8.7.06-15.19,8.11-13.86,16.71l2,13.12a2.24,2.24,0,0,0,2.21,1.9H59a2.24,2.24,0,0,0,2.21-1.9Z"/></g></g></svg>