<svg xmlns="http://www.w3.org/2000/svg" viewBox="0 0 48.8 64.88"><defs><style>.cls-1{fill:none;stroke:#000;stroke-linecap:round;stroke-linejoin:round;stroke-width:2px;}</style></defs><title>Asset 17</title><g id="Layer_2" data-name="Layer 2"><g id="Layer_2-2" data-name="Layer 2"><path class="cls-1" d="M20.85,30.8h5.5A1.6,1.6,0,0,0,28,29.2V26a1.6,1.6,0,0,0-1.6-1.6h-3.9a1.6,1.6,0,0,1-1.6-1.6V19.6a1.6,1.6,0,0,1,1.6-1.6H28"/><line class="cls-1" x1="24.4" y1="18" x2="24.4" y2="14.77"/><line class="cls-1" x1="24.4" y1="30.8" x2="24.4" y2="34.03"/><circle class="cls-1" cx="24.4" cy="24.4" r="23.4"/><path class="cls-1" d="M10.86,14.82A16.63,16.63,0,0,1,41.08,24.4"/><path class="cls-1" d="M38.05,34A16.63,16.63,0,0,1,7.82,24.4"/><polyline class="cls-1" points="5.36 26.86 7.82 24.4 10.28 26.86"/><polyline class="cls-1" points="43.44 22.05 41.08 24.4 38.72 22.05"/><path class="cls-1" d="M10.29,47.8H38.51a2.11,2.11,0,0,1,2.11,2.11v5.42a0,0,0,0,1,0,0H8.18a0,0,0,0,1,0,0V49.91A2.11,2.11,0,0,1,10.29,47.8Z"/><path class="cls-1" d="M5.37,55.32H43.43a3.07,3.07,0,0,1,3.07,3.07v5.49a0,0,0,0,1,0,0H2.3a0,0,0,0,1,0,0V58.39A3.07,3.07,0,0,1,5.37,55.32Z"/></g></g></svg>