<svg xmlns="http://www.w3.org/2000/svg" viewBox="0 0 64.88 60.17"><defs><style>.cls-1{fill:none;stroke:#000;stroke-linecap:round;stroke-linejoin:round;stroke-width:2px;}</style></defs><title>Asset 36</title><g id="Layer_2" data-name="Layer 2"><g id="Layer_2-2" data-name="Layer 2"><path class="cls-1" d="M22.6,27.53a10.48,10.48,0,0,1-21,.49c0-.16,0-.32,0-.49a10.49,10.49,0,0,1,21,0Z"/><path class="cls-1" d="M1,38H23.23a0,0,0,0,1,0,0v.15A5.19,5.19,0,0,1,18,43.35H6.19A5.19,5.19,0,0,1,1,38.16V38a0,0,0,0,1,0,0Z"/><path class="cls-1" d="M63.25,27.53a10.48,10.48,0,0,1-21,.49c0-.16,0-.32,0-.49a10.49,10.49,0,0,1,21,0Z"/><path class="cls-1" d="M50.48,29.81a2.28,2.28,0,1,0,2.28-2.28A2.28,2.28,0,1,1,55,25.25"/><line class="cls-1" x1="52.76" y1="22.97" x2="52.76" y2="20.97"/><line class="cls-1" x1="52.76" y1="34.09" x2="52.76" y2="32.09"/><path class="cls-1" d="M41.65,38H63.88a0,0,0,0,1,0,0v.15a5.19,5.19,0,0,1-5.19,5.19H46.84a5.19,5.19,0,0,1-5.19-5.19V38A0,0,0,0,1,41.65,38Z"/><line class="cls-1" x1="15.47" y1="24.18" x2="8.76" y2="30.88"/><circle class="cls-1" cx="8.46" cy="23.88" r="1.75"/><circle class="cls-1" cx="15.76" cy="31.18" r="1.75"/><path class="cls-1" d="M35.76,9.63V52.78H29.11V9.63a5,5,0,0,0,6.65,0Z"/><path class="cls-1" d="M37.39,6a4.9,4.9,0,0,1-.56,2.28,4.83,4.83,0,0,1-1.07,1.39,5,5,0,0,1-6.65,0,5.13,5.13,0,0,1-1.06-1.39A4.95,4.95,0,1,1,37.39,6Z"/><path class="cls-1" d="M60.36,6a2.25,2.25,0,0,1-.67,1.61,2.28,2.28,0,0,1-1.61.67H36.83a4.94,4.94,0,0,0,0-4.57H58.08A2.28,2.28,0,0,1,60.36,6Z"/><path class="cls-1" d="M27.48,6a4.91,4.91,0,0,0,.57,2.28H6.8a2.32,2.32,0,0,1-1.62-.67A2.28,2.28,0,0,1,6.8,3.67H28.05A4.92,4.92,0,0,0,27.48,6Z"/><line class="cls-1" x1="52.77" y1="17.05" x2="52.77" y2="8.24"/><line class="cls-1" x1="12.12" y1="17.05" x2="12.12" y2="8.24"/><path class="cls-1" d="M18.5,52.78H46.38a6.39,6.39,0,0,1,6.39,6.39v0a0,0,0,0,1,0,0H12.11a0,0,0,0,1,0,0v0A6.39,6.39,0,0,1,18.5,52.78Z"/></g></g></svg>