<svg xmlns="http://www.w3.org/2000/svg" viewBox="0 0 50.76 64.66"><defs><style>.cls-1{fill:none;stroke:#000;stroke-linecap:round;stroke-linejoin:round;stroke-width:2px;}</style></defs><title>Asset 51</title><g id="Layer_2" data-name="Layer 2"><g id="Layer_2-2" data-name="Layer 2"><path class="cls-1" d="M22.17,46.63a3.21,3.21,0,1,0,3.21-3.21,3.21,3.21,0,1,1,3.21-3.21"/><line class="cls-1" x1="25.38" y1="37" x2="25.38" y2="34.18"/><line class="cls-1" x1="25.38" y1="52.66" x2="25.38" y2="49.84"/><path class="cls-1" d="M49.76,39.28A24.38,24.38,0,1,1,7.08,23.18h36.6A24.28,24.28,0,0,1,49.76,39.28Z"/><rect class="cls-1" x="4.11" y="16.49" width="42.54" height="6.69" rx="1.58"/><circle class="cls-1" cx="25.38" cy="43.42" r="13.63"/><circle class="cls-1" cx="36.08" cy="5.79" r="4.79"/><line class="cls-1" x1="32.7" y1="9.17" x2="25.38" y2="16.49"/><circle class="cls-1" cx="14.67" cy="5.79" r="4.79"/><line class="cls-1" x1="18.06" y1="9.17" x2="25.38" y2="16.49"/></g></g></svg>