<svg xmlns="http://www.w3.org/2000/svg" viewBox="0 0 59.63 67.1"><defs><style>.cls-1{fill:none;stroke:#000;stroke-linecap:round;stroke-linejoin:round;stroke-width:2px;}</style></defs><title>Asset 30</title><g id="Layer_2" data-name="Layer 2"><g id="Layer_2-2" data-name="Layer 2"><path class="cls-1" d="M45.39,33.55,50.26,42a5.57,5.57,0,0,0-2.79,4.83H37.72l-5.11,8.86a5.56,5.56,0,0,0-5.58,0l-5.12-8.86H12.16A5.57,5.57,0,0,0,9.37,42l4.88-8.45L9.37,25.1a5.57,5.57,0,0,0,2.79-4.83h9.75L27,11.41a5.56,5.56,0,0,0,5.58,0l5.11,8.86h9.75a5.57,5.57,0,0,0,2.79,4.83Z"/><path class="cls-1" d="M35.4,6.58a5.56,5.56,0,0,1-2.79,4.83,5.56,5.56,0,0,1-5.58,0A5.58,5.58,0,1,1,35.4,6.58Z"/><path class="cls-1" d="M35.4,60.52A5.59,5.59,0,1,1,27,55.69a5.56,5.56,0,0,1,5.58,0A5.57,5.57,0,0,1,35.4,60.52Z"/><path class="cls-1" d="M58.63,20.27a5.58,5.58,0,0,1-5.58,5.58,5.49,5.49,0,0,1-2.79-.75,5.58,5.58,0,1,1,8.37-4.83Z"/><path class="cls-1" d="M12.16,20.27A5.57,5.57,0,0,1,9.37,25.1a5.49,5.49,0,0,1-2.79.75,5.58,5.58,0,1,1,5.58-5.58Z"/><path class="cls-1" d="M12.16,46.83a5.58,5.58,0,1,1-5.58-5.58A5.49,5.49,0,0,1,9.37,42,5.57,5.57,0,0,1,12.16,46.83Z"/><path class="cls-1" d="M58.63,46.83A5.58,5.58,0,1,1,50.26,42a5.49,5.49,0,0,1,2.79-.75A5.58,5.58,0,0,1,58.63,46.83Z"/></g></g></svg>