<svg xmlns="http://www.w3.org/2000/svg" viewBox="0 0 38.96 64.65"><defs><style>.cls-1{fill:none;stroke:#000;stroke-linecap:round;stroke-linejoin:round;stroke-width:2px;}</style></defs><title>Asset 52</title><g id="Layer_2" data-name="Layer 2"><g id="Layer_2-2" data-name="Layer 2"><path class="cls-1" d="M38,8V60.73A2.93,2.93,0,0,1,35,63.65H3.92A2.92,2.92,0,0,1,1,60.73V8A2.92,2.92,0,0,1,3.92,5.08H8.76v6.39H30.19V5.08H35A2.93,2.93,0,0,1,38,8Z"/><rect class="cls-1" x="5.87" y="16.15" width="27.21" height="16.18" rx="2.1"/><rect class="cls-1" x="5.87" y="37.1" width="6.21" height="6.21" rx="2.1"/><rect class="cls-1" x="16.37" y="37.1" width="6.21" height="6.21" rx="2.1"/><rect class="cls-1" x="26.87" y="37.1" width="6.21" height="6.21" rx="2.1"/><rect class="cls-1" x="5.87" y="48.08" width="6.21" height="6.21" rx="2.1"/><rect class="cls-1" x="16.37" y="48.08" width="6.21" height="6.21" rx="2.1"/><rect class="cls-1" x="26.87" y="48.08" width="6.21" height="6.21" rx="2.1"/><path class="cls-1" d="M26.33,58.59H12.62a1.21,1.21,0,0,0-1.17.94l-.92,4.12h17.9l-.93-4.12A1.2,1.2,0,0,0,26.33,58.59Z"/><line class="cls-1" x1="5.87" y1="11.47" x2="33.08" y2="11.47"/><path class="cls-1" d="M30.19,3.24v8.23H8.76V3.24A2.24,2.24,0,0,1,11,1H28A2.23,2.23,0,0,1,30.19,3.24Z"/></g></g></svg>