<svg xmlns="http://www.w3.org/2000/svg" viewBox="0 0 62.33 64.87"><defs><style>.cls-1{fill:none;stroke:#000;stroke-linecap:round;stroke-linejoin:round;stroke-width:2px;}</style></defs><title>Asset 20</title><g id="Layer_2" data-name="Layer 2"><g id="Layer_2-2" data-name="Layer 2"><path class="cls-1" d="M61.33,18.59v3.62a15,15,0,0,1-15,15H36.56V32.82H25.76V37.2H16a15,15,0,0,1-15-15V18.59A4.1,4.1,0,0,1,5.1,14.5H57.23A4.1,4.1,0,0,1,61.33,18.59Z"/><path class="cls-1" d="M61.33,22.21v31A10.65,10.65,0,0,1,50.68,63.87h-39A10.65,10.65,0,0,1,1,53.22v-31a15,15,0,0,0,15,15h9.77v2.68a5.59,5.59,0,0,0,4.91,5.66,5.4,5.4,0,0,0,5.89-5.38v-3h9.78A15,15,0,0,0,61.33,22.21Z"/><path class="cls-1" d="M36.56,32.82v7.06a5.59,5.59,0,0,1-4.91,5.66,5.4,5.4,0,0,1-5.89-5.38V32.82Z"/><path class="cls-1" d="M23.11,1H39a6.13,6.13,0,0,1,6.13,6.13V14.5a0,0,0,0,1,0,0h-28a0,0,0,0,1,0,0V6.93A5.93,5.93,0,0,1,23.11,1Z"/></g></g></svg>