<svg xmlns="http://www.w3.org/2000/svg" viewBox="0 0 33.98 64.88"><defs><style>.cls-1{fill:none;stroke:#000;stroke-linecap:round;stroke-linejoin:round;stroke-width:2px;}</style></defs><title>Asset 24</title><g id="Layer_2" data-name="Layer 2"><g id="Layer_2-2" data-name="Layer 2"><path class="cls-1" d="M1,12.49H25.59A7.39,7.39,0,0,1,33,19.88v36.6a7.39,7.39,0,0,1-7.39,7.39H8.39A7.39,7.39,0,0,1,1,56.49v-44A0,0,0,0,1,1,12.49Z"/><path class="cls-1" d="M3.65,1h0A2.65,2.65,0,0,1,6.3,3.65v8.84a0,0,0,0,1,0,0H1a0,0,0,0,1,0,0V3.65A2.65,2.65,0,0,1,3.65,1Z"/><rect class="cls-1" x="5.69" y="17.31" width="22.61" height="13.61" rx="2.41"/><line class="cls-1" x1="1" y1="35.74" x2="32.98" y2="35.74"/><rect class="cls-1" x="5.02" y="42.09" width="5.22" height="5.22" rx="1.41"/><rect class="cls-1" x="14.38" y="42.09" width="5.22" height="5.22" rx="1.41"/><rect class="cls-1" x="23.74" y="42.09" width="5.22" height="5.22" rx="1.41"/><rect class="cls-1" x="5.02" y="52.3" width="5.22" height="5.22" rx="1.41"/><rect class="cls-1" x="14.38" y="52.3" width="5.22" height="5.22" rx="1.41"/><rect class="cls-1" x="23.74" y="52.3" width="5.22" height="5.22" rx="1.41"/></g></g></svg>