<svg xmlns="http://www.w3.org/2000/svg" viewBox="0 0 45.82 64.88"><defs><style>.cls-1{fill:none;stroke:#000;stroke-linecap:round;stroke-linejoin:round;stroke-width:2px;}</style></defs><title>Asset 5</title><g id="Layer_2" data-name="Layer 2"><g id="Layer_2-2" data-name="Layer 2"><path class="cls-1" d="M19.86,49.86h4.72A1.38,1.38,0,0,0,26,48.48V45.73a1.38,1.38,0,0,0-1.38-1.38H21.24A1.37,1.37,0,0,1,19.86,43V40.23a1.38,1.38,0,0,1,1.38-1.38H26"/><line class="cls-1" x1="22.91" y1="38.85" x2="22.91" y2="36.08"/><line class="cls-1" x1="22.91" y1="49.86" x2="22.91" y2="52.63"/><circle class="cls-1" cx="22.91" cy="44.35" r="19.52"/><path class="cls-1" d="M44.14,9.22l-6.29,1.91L23.19,15.57a1.06,1.06,0,0,1-.56,0L8,11.13,1.68,9.22a1,1,0,0,1,0-1.83L22.63,1a1.06,1.06,0,0,1,.56,0l21,6.35A1,1,0,0,1,44.14,9.22Z"/><path class="cls-1" d="M37.85,11.13v9.21a4.49,4.49,0,0,1-4.48,4.49H12.45A4.49,4.49,0,0,1,8,20.34V11.13l14.66,4.44a1.06,1.06,0,0,0,.56,0Z"/><circle class="cls-1" cx="22.91" cy="44.35" r="14.55"/></g></g></svg>