<svg xmlns="http://www.w3.org/2000/svg" viewBox="0 0 59.48 64.74"><defs><style>.cls-1{fill:none;stroke:#000;stroke-linecap:round;stroke-linejoin:round;stroke-width:2px;}</style></defs><title>Asset 27</title><g id="Layer_2" data-name="Layer 2"><g id="Layer_2-2" data-name="Layer 2"><path class="cls-1" d="M54.65,56.07H53.9V43A24.16,24.16,0,0,0,29.74,18.84h0A24.16,24.16,0,0,0,5.58,43V56.07H4.84A3.83,3.83,0,0,0,1,59.9H1a3.84,3.84,0,0,0,3.84,3.84H54.65a3.84,3.84,0,0,0,3.83-3.84h0A3.83,3.83,0,0,0,54.65,56.07Z"/><rect class="cls-1" x="19.59" y="11.9" width="20.31" height="6.94" rx="3.47"/><path class="cls-1" d="M20.33,1H39.15a.75.75,0,0,1,.75.75v0A10.15,10.15,0,0,1,29.74,11.9h0A10.15,10.15,0,0,1,19.59,1.75v0A.75.75,0,0,1,20.33,1Z"/><path class="cls-1" d="M25.78,50.71h5.93a2,2,0,0,0,2-2V44.83a2,2,0,0,0-2-2H27.77a2,2,0,0,1-2-2V36.94a2,2,0,0,1,2-2h5.94"/><line class="cls-1" x1="29.74" y1="34.95" x2="29.74" y2="30.75"/><line class="cls-1" x1="29.74" y1="54.91" x2="29.74" y2="50.71"/></g></g></svg>