<svg xmlns="http://www.w3.org/2000/svg" viewBox="0 0 61.89 64.88"><defs><style>.cls-1{fill:none;stroke:#000;stroke-linecap:round;stroke-linejoin:round;stroke-width:2px;}</style></defs><title>Asset 12</title><g id="Layer_2" data-name="Layer 2"><g id="Layer_2-2" data-name="Layer 2"><path class="cls-1" d="M14.93,1h46a0,0,0,0,1,0,0V8a6.38,6.38,0,0,1-6.37,6.38H6.9a0,0,0,0,1,0,0V9A8,8,0,0,1,14.93,1Z"/><path class="cls-1" d="M11,14.4H49.18a0,0,0,0,1,0,0v16a1.91,1.91,0,0,1-1.91,1.91H17.21A6.16,6.16,0,0,1,11,26.14V14.4A0,0,0,0,1,11,14.4Z"/><path class="cls-1" d="M49.18,18.75h5.06a1.83,1.83,0,0,1,1.83,1.83v5.55A1.83,1.83,0,0,1,54.24,28H49.18a0,0,0,0,1,0,0V18.75A0,0,0,0,1,49.18,18.75Z"/><path class="cls-1" d="M23.44,32.3H36.79a0,0,0,0,1,0,0v5.5a1.31,1.31,0,0,1-1.31,1.31H24.75a1.31,1.31,0,0,1-1.31-1.31V32.3A0,0,0,0,1,23.44,32.3Z"/><path class="cls-1" d="M26.68,39.11V49.36a1.13,1.13,0,0,1-1.12,1.13H8.28v6.85H27.35a6.19,6.19,0,0,0,6.19-6.19v-12Z"/><path class="cls-1" d="M1,44H5.93a2.35,2.35,0,0,1,2.35,2.35V61.53a2.35,2.35,0,0,1-2.35,2.35H1a0,0,0,0,1,0,0V44A0,0,0,0,1,1,44Z"/><line class="cls-1" x1="16" y1="50.49" x2="16" y2="57.34"/><line class="cls-1" x1="60.89" y1="8.03" x2="19.78" y2="8.03"/></g></g></svg>