<?xml version="1.0" standalone="no"?>
<!DOCTYPE svg PUBLIC "-//W3C//DTD SVG 20010904//EN"
 "http://www.w3.org/TR/2001/REC-SVG-20010904/DTD/svg10.dtd">
<svg version="1.0" xmlns="http://www.w3.org/2000/svg"
 width="512.000000pt" height="512.000000pt" viewBox="0 0 512.000000 512.000000"
 preserveAspectRatio="xMidYMid meet">

<g transform="translate(0.000000,512.000000) scale(0.100000,-0.100000)"
fill="#000000" stroke="none">
<path d="M166 4918 c-59 -13 -103 -45 -133 -96 -89 -152 42 -337 217 -307 50
8 118 58 139 102 l16 33 394 -3 393 -2 99 -170 c54 -93 99 -174 99 -180 0 -5
-29 -25 -65 -43 -74 -39 -257 -162 -262 -177 -2 -6 73 -86 165 -178 l168 -168
55 37 c121 81 304 158 450 188 l64 13 3 241 c2 190 0 242 -10 242 -59 0 -308
-59 -399 -94 l-35 -14 -124 213 c-103 180 -128 216 -153 225 -19 6 -181 10
-436 10 l-406 1 -26 43 c-40 66 -132 103 -213 84z"/>
<path d="M3027 4728 c-19 -29 -75 -126 -127 -215 -51 -90 -96 -163 -99 -163
-3 0 -49 14 -101 30 -85 27 -279 70 -316 70 -12 0 -14 -35 -12 -242 l3 -241
64 -13 c141 -29 311 -99 439 -180 29 -19 56 -34 60 -34 4 0 81 74 171 164 137
138 162 167 152 179 -18 23 -167 120 -253 167 -43 23 -78 45 -78 48 0 4 45 84
99 177 l99 170 76 3 76 3 0 64 0 65 -110 0 -110 0 -33 -52z"/>
<path d="M725 3729 c-117 -159 -220 -370 -275 -564 -51 -182 -64 -282 -63
-490 0 -220 19 -351 79 -537 35 -109 126 -310 178 -394 l25 -40 -204 -117
c-111 -65 -206 -124 -209 -133 -3 -9 -6 -204 -6 -434 l0 -419 -40 -22 c-138
-78 -132 -287 11 -359 50 -26 137 -26 187 -1 148 76 150 289 3 365 l-31 17 2
390 3 391 120 70 c66 38 148 85 181 104 l61 34 74 -86 c96 -111 216 -217 354
-309 454 -304 1025 -384 1545 -215 165 54 416 187 533 282 l28 23 -169 168
-169 169 -64 -42 c-134 -87 -327 -162 -489 -191 -97 -17 -343 -17 -440 0 -170
30 -356 104 -505 202 -100 65 -285 249 -352 349 -214 320 -280 692 -188 1054
39 154 91 269 195 434 14 21 9 28 -157 193 l-171 172 -47 -64z"/>
<path d="M2065 3699 c-385 -34 -732 -302 -866 -669 -78 -216 -86 -430 -22
-650 111 -383 444 -672 842 -730 384 -57 784 118 998 435 239 355 243 808 10
1157 -214 320 -574 491 -962 457z m333 -179 c313 -89 540 -319 624 -632 18
-68 22 -108 22 -223 -1 -122 -5 -152 -28 -228 -76 -254 -235 -444 -461 -553
-140 -68 -225 -87 -385 -87 -164 0 -248 19 -395 92 -223 110 -390 313 -457
556 -18 66 -22 106 -22 230 1 134 3 159 28 240 97 319 348 550 676 620 94 21
303 13 398 -15z"/>
<path d="M2015 3385 c-251 -54 -460 -243 -542 -490 -24 -72 -27 -95 -27 -225
0 -133 2 -152 27 -225 119 -342 459 -551 806 -494 159 25 286 92 407 214 165
165 239 396 200 621 -62 363 -363 617 -728 613 -46 0 -110 -6 -143 -14z m210
-78 c9 -13 15 -45 15 -79 0 -51 2 -58 20 -58 34 0 127 -40 167 -71 48 -39 93
-104 93 -137 0 -36 -37 -72 -73 -72 -23 0 -40 11 -71 46 -38 42 -100 84 -126
84 -6 0 -10 -49 -10 -138 l0 -139 58 -16 c110 -30 208 -119 233 -210 14 -53 6
-124 -20 -174 -37 -73 -148 -152 -238 -169 -33 -6 -33 -7 -33 -65 0 -68 -21
-99 -69 -99 -51 0 -74 29 -79 98 -4 59 -5 61 -36 68 -65 13 -135 56 -185 110
-42 45 -51 62 -51 92 0 47 24 72 69 72 31 0 43 -8 81 -50 25 -27 62 -57 83
-65 l38 -15 -3 140 -3 141 -50 17 c-150 51 -234 149 -235 273 0 110 80 211
205 258 31 12 62 21 70 21 11 0 15 13 15 48 0 26 6 58 13 72 25 49 93 59 122
17z"/>
<path d="M2032 2999 c-109 -54 -110 -164 -1 -219 21 -11 43 -20 49 -20 6 0 10
47 10 130 0 72 -3 130 -7 130 -5 0 -27 -10 -51 -21z"/>
<path d="M2240 2454 l0 -135 23 6 c65 20 127 83 127 130 0 48 -47 95 -125 125
l-25 10 0 -136z"/>
<path d="M3252 3477 c-27 -29 -27 -28 3 -73 l25 -37 0 67 c0 36 -1 66 -3 66
-2 0 -13 -10 -25 -23z"/>
<path d="M3248 1941 l-26 -39 29 -28 29 -28 0 67 c0 37 -1 67 -2 67 -2 -1 -15
-18 -30 -39z"/>
</g>
</svg>
