<svg xmlns="http://www.w3.org/2000/svg" xmlns:xlink="http://www.w3.org/1999/xlink" version="1.1" x="0px" y="0px" viewBox="-4.800000000000001 -9.600000000000001 105.6 129.6" enable-background="new 0 0 96 96" xml:space="preserve"><path fill-rule="evenodd" clip-rule="evenodd" d="M52.796,62.463c0.881,0,1.678,0.357,2.256,0.935  c0.577,0.577,0.935,1.375,0.935,2.256s-0.357,1.678-0.935,2.256s-1.375,0.935-2.256,0.935s-1.679-0.357-2.256-0.935  c-0.577-0.578-0.935-1.375-0.935-2.256c0-0.518,0.124-1.006,0.342-1.438l-0.703-0.667h-0.87v5.515c0,0.417-0.278,0.77-0.658,0.884  c-0.713,0.255-1.467,0.393-2.235,0.405c-0.763,0.012-1.536-0.104-2.292-0.357c-1.358-0.453-2.536-1.305-3.436-2.421  c-1.363-0.137-2.472-0.585-3.342-1.228c-0.886-0.655-1.516-1.508-1.912-2.442c-0.389-0.919-0.549-1.915-0.5-2.871l0.001-0.022  c0.063-1.164,0.436-2.28,1.076-3.147c0.089-0.121,0.203-0.213,0.328-0.275c-0.329-0.542-0.576-1.133-0.747-1.754  c-0.018-0.004-0.036-0.009-0.054-0.014c-1.675-0.494-3.019-1.701-3.932-3.264c-0.658-1.127-1.096-2.449-1.27-3.824  c-0.174-1.37-0.085-2.792,0.307-4.122c0.5-1.695,1.485-3.24,3.036-4.35c-0.669-1.804-0.63-3.658-0.124-5.291  c0.367-1.184,0.981-2.25,1.751-3.099c0.789-0.869,1.75-1.517,2.789-1.838c0.53-0.164,1.075-0.244,1.622-0.228  c0.162-0.562,0.4-1.077,0.701-1.539c0.619-0.95,1.496-1.666,2.504-2.108c0.997-0.438,2.12-0.607,3.24-0.47  c0.906,0.111,1.815,0.423,2.658,0.958c0.291,0.155,0.489,0.461,0.489,0.813v4.99h0.87l0.703-0.667  c-0.219-0.432-0.342-0.921-0.342-1.438c0-0.881,0.357-1.679,0.935-2.256c0.578-0.578,1.375-0.935,2.256-0.935  s1.678,0.357,2.256,0.935c0.577,0.577,0.935,1.375,0.935,2.256s-0.357,1.678-0.935,2.256c-0.577,0.577-1.375,0.935-2.256,0.935  c-0.576,0-1.116-0.152-1.583-0.419l-0.953,0.905c-0.056,0.056-0.119,0.105-0.187,0.146l0,0l-0.018,0.009l-0.005,0.003l-0.011,0.006  l-0.011,0.006l-0.006,0.003l-0.016,0.007l-0.003,0.001l-0.015,0.007l-0.007,0.003l-0.015,0.006l-0.004,0.002  c-0.012,0.005-0.025,0.01-0.037,0.015L49.92,34.24c-0.106,0.039-0.218,0.057-0.329,0.055h-1.216v5.818h6.01l2.792-2.652  c-0.219-0.432-0.342-0.921-0.342-1.438c0-0.881,0.357-1.679,0.934-2.256c0.578-0.578,1.375-0.935,2.256-0.935  c0.88,0,1.678,0.357,2.256,0.935c0.577,0.577,0.935,1.375,0.935,2.256c0,0.88-0.357,1.678-0.935,2.256  c-0.577,0.577-1.375,0.935-2.256,0.935c-0.576,0-1.116-0.153-1.583-0.42l-3.042,2.89c-0.056,0.056-0.119,0.105-0.187,0.146h-0.001  l-0.017,0.01l-0.005,0.002l-0.012,0.006l-0.01,0.005l-0.006,0.003l-0.016,0.008l-0.003,0.001l-0.015,0.007l-0.007,0.003  l-0.014,0.007l-0.004,0.001c-0.012,0.005-0.025,0.01-0.037,0.015l-0.006,0.002c-0.106,0.039-0.217,0.057-0.329,0.055h-6.356v5.34  h10.628c0.154-0.51,0.432-0.967,0.799-1.334c0.577-0.577,1.375-0.935,2.256-0.935s1.679,0.357,2.256,0.935  c0.578,0.578,0.935,1.375,0.935,2.256s-0.357,1.679-0.935,2.256c-0.577,0.577-1.375,0.935-2.256,0.935s-1.679-0.357-2.256-0.935  c-0.368-0.368-0.646-0.824-0.799-1.334H48.375v5.34h6.348c0.137-0.003,0.275,0.023,0.402,0.081l0,0  c0.019,0.009,0.039,0.018,0.057,0.028l0.004,0.002l0.012,0.006l0.011,0.006l0.007,0.004l0.013,0.008l0.005,0.003  c0.06,0.038,0.115,0.082,0.165,0.132l3.043,2.891c0.466-0.267,1.007-0.42,1.583-0.42c0.88,0,1.678,0.357,2.256,0.935  c0.577,0.578,0.935,1.375,0.935,2.256s-0.357,1.679-0.935,2.256c-0.577,0.578-1.375,0.935-2.256,0.935s-1.679-0.357-2.256-0.935  c-0.577-0.577-0.934-1.375-0.934-2.256c0-0.517,0.123-1.006,0.341-1.438l-2.792-2.652h-6.01v5.383h1.213  c0.112-0.002,0.225,0.016,0.332,0.055l0.005,0.002c0.012,0.005,0.025,0.01,0.037,0.015l0.004,0.001l0.015,0.006l0.007,0.003  l0.015,0.007l0.003,0.001l0.016,0.008l0.006,0.003l0.011,0.006l0.011,0.006l0.005,0.003l0.018,0.01l0,0  c0.068,0.04,0.131,0.089,0.187,0.146l0.953,0.905C51.68,62.616,52.221,62.463,52.796,62.463L52.796,62.463z M79.062,39.703  c0.031-0.507,0.468-0.893,0.975-0.861c0.507,0.032,0.893,0.469,0.861,0.976l-0.001,0.021l-0.002,0.023  c-0.006,0.301,0.152,0.597,0.416,0.834c0.323,0.29,0.786,0.487,1.315,0.521c0.055,0.003,0.11,0.005,0.164,0.005  c0.056-0.011,0.113-0.016,0.172-0.016c0.025,0,0.051,0.001,0.076,0.003c0.209-0.021,0.404-0.071,0.58-0.143  c0.271-0.111,0.493-0.274,0.638-0.472c0.141-0.192,0.204-0.468,0.189-0.748c-0.013-0.264-0.095-0.509-0.241-0.661  c-0.301-0.312-0.984-0.437-1.662-0.561c-1.412-0.26-2.807-0.516-3.208-2.223c-0.101-0.432-0.115-0.874-0.037-1.299  c0.079-0.428,0.25-0.833,0.516-1.184c0.348-0.461,0.839-0.828,1.417-1.063c0.254-0.103,0.526-0.18,0.811-0.229V32.27  c0-0.509,0.412-0.921,0.921-0.921c0.509,0,0.921,0.413,0.921,0.921v0.452c0.606,0.167,1.144,0.463,1.566,0.844  c0.668,0.602,1.061,1.416,1.021,2.302v0.003l0,0l-0.001,0.021l-0.001,0.014h0.001l-0.001,0.021c-0.032,0.507-0.469,0.892-0.976,0.86  c-0.507-0.032-0.892-0.468-0.86-0.976l0.001-0.021h0.001v-0.007l0,0c0.013-0.306-0.147-0.609-0.416-0.851  c-0.313-0.282-0.759-0.475-1.268-0.517c-0.033,0-0.065-0.003-0.097-0.006c-0.34-0.015-0.659,0.041-0.933,0.152  c-0.271,0.11-0.494,0.271-0.64,0.464c-0.091,0.121-0.15,0.26-0.177,0.407c-0.031,0.169-0.023,0.357,0.022,0.55  c0.126,0.536,0.932,0.684,1.747,0.833c0.967,0.178,1.943,0.357,2.655,1.095c0.465,0.481,0.718,1.162,0.752,1.849  c0.034,0.677-0.145,1.382-0.542,1.921c-0.346,0.469-0.839,0.845-1.423,1.084c-0.139,0.057-0.284,0.107-0.433,0.148v0.439  c0,0.509-0.413,0.921-0.921,0.921c-0.509,0-0.921-0.413-0.921-0.921v-0.356c-0.766-0.135-1.448-0.471-1.96-0.932  c-0.661-0.596-1.052-1.4-1.021-2.275l0-0.016c0-0.017,0-0.033,0.002-0.05L79.062,39.703L79.062,39.703z M82.764,27.416  c-1.171,0-2.297,0.194-3.347,0.551c-3.285-5.093-7.787-9.329-13.094-12.295c-5.338-2.984-11.487-4.684-18.029-4.684  c-9.421,0-18.022,3.523-24.557,9.324c-6.061,5.38-10.342,12.716-11.854,21.017l-3.32-4.679c-0.294-0.414-0.868-0.51-1.281-0.216  c-0.414,0.294-0.51,0.868-0.216,1.282l4.606,6.492c0.143,0.23,0.385,0.395,0.674,0.429c0.288,0.034,0.56-0.068,0.751-0.256  l6.108-5.081c0.39-0.324,0.443-0.903,0.119-1.292c-0.324-0.39-0.902-0.443-1.292-0.119l-4.302,3.579  c1.467-7.813,5.515-14.712,11.224-19.78c6.208-5.51,14.382-8.856,23.34-8.856c6.225,0,12.069,1.614,17.136,4.446  c4.959,2.772,9.179,6.71,12.287,11.444c-0.848,0.472-1.623,1.058-2.304,1.739c-1.881,1.881-3.045,4.48-3.045,7.351  s1.164,5.469,3.045,7.351s4.48,3.045,7.351,3.045s5.469-1.164,7.351-3.045c1.881-1.881,3.044-4.48,3.044-7.351  s-1.164-5.47-3.044-7.351C88.233,28.579,85.635,27.416,82.764,27.416L82.764,27.416z M88.812,31.764  c-1.548-1.547-3.686-2.505-6.047-2.505c-2.362,0-4.5,0.958-6.048,2.505c-1.547,1.547-2.504,3.686-2.504,6.047s0.957,4.5,2.504,6.047  c1.548,1.548,3.686,2.505,6.048,2.505c2.361,0,4.5-0.957,6.047-2.505c1.547-1.547,2.505-3.686,2.505-6.047  S90.359,33.311,88.812,31.764L88.812,31.764z M9.533,58.494c0.034-0.507,0.472-0.891,0.979-0.857  c0.507,0.034,0.891,0.472,0.857,0.979c-0.003,0.04-0.001-0.015-0.002,0.02c-0.014,0.307,0.146,0.611,0.416,0.854  c0.322,0.29,0.786,0.486,1.314,0.521c0.055,0.003,0.11,0.005,0.164,0.005c0.056-0.011,0.113-0.016,0.172-0.016  c0.026,0,0.051,0.001,0.076,0.003c0.209-0.022,0.404-0.071,0.58-0.144c0.272-0.111,0.493-0.275,0.638-0.472  c0.141-0.192,0.204-0.468,0.189-0.748c-0.013-0.264-0.094-0.509-0.241-0.661c-0.301-0.312-0.984-0.438-1.662-0.562  c-1.412-0.259-2.807-0.516-3.208-2.223c-0.102-0.431-0.116-0.874-0.037-1.299c0.079-0.428,0.249-0.833,0.516-1.185  c0.348-0.46,0.839-0.828,1.417-1.062c0.254-0.103,0.526-0.181,0.811-0.229v-0.357c0-0.509,0.413-0.921,0.921-0.921  s0.922,0.413,0.922,0.921v0.452c0.605,0.167,1.144,0.463,1.566,0.843c0.668,0.602,1.061,1.417,1.021,2.302l0,0.007h0L16.94,54.69  l0,0.01l0,0l-0.001,0.021c-0.032,0.507-0.468,0.892-0.975,0.86c-0.507-0.032-0.893-0.469-0.861-0.976l0.001-0.021l0,0l0.001-0.01  l0,0c0.011-0.305-0.148-0.606-0.416-0.847c-0.313-0.282-0.759-0.475-1.268-0.518c-0.033,0-0.065-0.002-0.097-0.006  c-0.34-0.015-0.658,0.041-0.933,0.152c-0.271,0.11-0.493,0.271-0.64,0.464c-0.091,0.121-0.15,0.26-0.177,0.407  c-0.031,0.169-0.023,0.357,0.022,0.55c0.126,0.536,0.932,0.684,1.747,0.833c0.967,0.178,1.943,0.357,2.656,1.094  c0.465,0.481,0.717,1.163,0.752,1.849c0.034,0.676-0.145,1.382-0.543,1.922c-0.345,0.469-0.839,0.844-1.423,1.083  c-0.139,0.057-0.284,0.107-0.433,0.148v0.438c0,0.509-0.413,0.922-0.922,0.922s-0.921-0.413-0.921-0.922v-0.355  c-0.766-0.135-1.448-0.471-1.96-0.933c-0.667-0.601-1.061-1.416-1.02-2.302C9.534,58.495,9.533,58.506,9.533,58.494L9.533,58.494z   M84.917,51.792c-0.143-0.229-0.385-0.394-0.674-0.428c-0.288-0.034-0.56,0.068-0.752,0.256L77.383,56.7  c-0.39,0.324-0.443,0.903-0.119,1.292c0.324,0.39,0.903,0.442,1.293,0.119l4.302-3.579c-1.467,7.813-5.514,14.712-11.224,19.78  c-6.208,5.51-14.382,8.856-23.341,8.856c-6.519,0-12.621-1.771-17.852-4.859c-5.132-3.03-9.428-7.325-12.457-12.456  c0.964-0.496,1.841-1.139,2.601-1.898c1.881-1.881,3.045-4.48,3.045-7.351s-1.164-5.469-3.045-7.351s-4.48-3.045-7.351-3.045  s-5.47,1.164-7.351,3.045c-1.881,1.881-3.045,4.48-3.045,7.351s1.164,5.47,3.045,7.351c1.881,1.881,4.48,3.045,7.351,3.045  c1.053,0,2.069-0.157,3.027-0.448c3.195,5.503,7.767,10.108,13.243,13.341c5.51,3.252,11.932,5.118,18.788,5.118  c9.421,0,18.022-3.523,24.558-9.324c6.061-5.38,10.342-12.716,11.854-21.017l3.319,4.679c0.294,0.414,0.868,0.51,1.282,0.216  c0.414-0.294,0.51-0.868,0.216-1.282L84.917,51.792L84.917,51.792z M19.284,50.559c1.548,1.547,2.505,3.686,2.505,6.047  s-0.957,4.5-2.505,6.047c-1.547,1.547-3.686,2.505-6.047,2.505s-4.5-0.958-6.047-2.505c-1.547-1.547-2.505-3.686-2.505-6.047  s0.958-4.5,2.505-6.047c1.548-1.547,3.686-2.505,6.047-2.505S17.736,49.011,19.284,50.559L19.284,50.559z M38.495,65.411  c-0.336-0.846-0.547-1.761-0.608-2.714c-0.032-0.507,0.354-0.944,0.86-0.976s0.944,0.354,0.976,0.86  c0.018,0.274,0.05,0.544,0.098,0.808c0.182,1.014,0.576,1.947,1.135,2.732c0.016,0.021,0.031,0.041,0.045,0.063  c0.704,0.964,1.66,1.698,2.772,2.07c0.558,0.186,1.126,0.271,1.687,0.263c0.359-0.006,0.719-0.051,1.072-0.135v-0.038v-5.718V55.4  v-7.183v-7.184v-7.661v-5.385c-0.492-0.252-1.009-0.406-1.526-0.469c-0.795-0.097-1.586,0.021-2.282,0.326  c-0.686,0.301-1.281,0.785-1.697,1.424c-0.187,0.286-0.337,0.606-0.446,0.958c0.593,0.268,1.173,0.669,1.725,1.222  c0.202-0.086,0.413-0.153,0.632-0.198c0.81-0.166,1.709-0.03,2.564,0.534c0.423,0.278,0.541,0.847,0.263,1.271  c-0.278,0.424-0.847,0.542-1.271,0.263c-0.06-0.04-0.12-0.075-0.18-0.106c-0.352-0.183-0.7-0.224-1.009-0.161  c-0.214,0.043-0.414,0.138-0.587,0.27l-0.014,0.012c-0.011,0.009-0.022,0.018-0.034,0.025c-0.021,0.018-0.042,0.036-0.062,0.055  c-0.196,0.18-0.344,0.41-0.421,0.667c-0.09,0.298-0.084,0.64,0.054,0.991c0.027,0.068,0.059,0.136,0.095,0.205  c0.241,0.447,0.073,1.005-0.374,1.246c-0.448,0.24-1.005,0.073-1.246-0.375c-0.48-0.888-0.533-1.797-0.293-2.593  c0.101-0.335,0.254-0.649,0.449-0.931c-0.47-0.432-0.959-0.708-1.449-0.85l-0.025-0.003c-0.083-0.01-0.162-0.031-0.235-0.061  c-0.497-0.098-0.991-0.062-1.46,0.083c-0.713,0.221-1.393,0.686-1.968,1.32c-0.595,0.656-1.07,1.482-1.355,2.4  c-0.688,2.217-0.253,4.971,2.301,7.157c0.386,0.33,0.431,0.91,0.101,1.296c-0.33,0.385-0.91,0.431-1.296,0.101  c-0.786-0.672-1.411-1.39-1.894-2.132c-1.065,0.841-1.753,1.968-2.116,3.198c-0.32,1.084-0.392,2.249-0.249,3.373  c0.142,1.121,0.5,2.202,1.04,3.125c0.536,0.917,1.248,1.666,2.1,2.118c-0.013-0.678,0.048-1.361,0.177-2.023  c0.239-1.233,0.711-2.41,1.369-3.375c0.877-1.286,2.083-2.204,3.522-2.423c0.019-0.121,0.041-0.24,0.067-0.358  c0.158-0.715,0.462-1.378,0.906-1.896c0.652-0.761,1.574-1.21,2.748-1.088c0.504,0.051,0.872,0.502,0.821,1.008  c-0.052,0.504-0.502,0.871-1.006,0.821h-0.002c-0.5-0.052-0.891,0.136-1.164,0.455c-0.244,0.285-0.416,0.669-0.51,1.097  c-0.058,0.26-0.086,0.535-0.084,0.811c0,0.009,0,0.019,0,0.028c0.002,0.198,0.021,0.397,0.053,0.594  c0.12,0.704,0.441,1.347,0.973,1.698c0.072,0.047,0.147,0.089,0.227,0.126c0.463,0.208,0.669,0.753,0.461,1.216  c-0.209,0.464-0.753,0.67-1.217,0.461c-0.739-0.336-1.297-0.892-1.682-1.561c-0.271-0.47-0.456-0.995-0.558-1.539  c-0.798,0.208-1.495,0.795-2.035,1.587c-0.516,0.757-0.889,1.693-1.081,2.684c-0.194,0.998-0.204,2.036,0.007,2.987  c0.312,1.404,1.117,2.628,2.544,3.226c0.063,0.026,0.128,0.052,0.195,0.077c0.477,0.173,0.724,0.7,0.551,1.177  c-0.173,0.478-0.7,0.724-1.177,0.551c-0.75-0.274-1.387-0.658-1.919-1.125c-0.425,0.577-0.672,1.342-0.714,2.155l0,0.011  c-0.035,0.692,0.079,1.408,0.356,2.064c0.271,0.642,0.705,1.229,1.313,1.679C37.794,65.083,38.123,65.266,38.495,65.411  L38.495,65.411z M53.749,29.394c-0.244-0.244-0.581-0.395-0.953-0.395s-0.709,0.151-0.953,0.395  c-0.244,0.244-0.395,0.581-0.395,0.953s0.15,0.709,0.395,0.953c0.244,0.244,0.581,0.395,0.953,0.395s0.709-0.151,0.953-0.395  s0.395-0.581,0.395-0.953S53.993,29.637,53.749,29.394L53.749,29.394z M60.978,35.069c-0.244-0.244-0.581-0.394-0.953-0.394  c-0.373,0-0.709,0.15-0.953,0.394c-0.244,0.244-0.395,0.581-0.395,0.953c0,0.372,0.151,0.708,0.395,0.953  c0.244,0.244,0.58,0.395,0.953,0.395c0.372,0,0.709-0.151,0.953-0.395c0.244-0.244,0.395-0.581,0.395-0.953  C61.373,35.65,61.222,35.313,60.978,35.069L60.978,35.069z M63.011,47.264c-0.244-0.244-0.581-0.395-0.953-0.395  s-0.709,0.151-0.953,0.395c-0.244,0.244-0.395,0.581-0.395,0.953v0c0,0.372,0.15,0.709,0.395,0.953  c0.244,0.244,0.581,0.394,0.953,0.394s0.709-0.15,0.953-0.394s0.395-0.581,0.395-0.953S63.255,47.508,63.011,47.264L63.011,47.264z   M60.978,59.459c-0.244-0.244-0.581-0.395-0.953-0.395c-0.373,0-0.709,0.151-0.953,0.395c-0.244,0.244-0.395,0.581-0.395,0.953  s0.151,0.709,0.395,0.953c0.244,0.243,0.58,0.394,0.953,0.394c0.372,0,0.709-0.151,0.953-0.394c0.244-0.244,0.395-0.581,0.395-0.953  S61.222,59.703,60.978,59.459L60.978,59.459z M53.749,64.701c-0.244-0.243-0.581-0.394-0.953-0.394s-0.709,0.151-0.953,0.394  c-0.244,0.244-0.395,0.581-0.395,0.953s0.15,0.709,0.395,0.953c0.244,0.244,0.581,0.395,0.953,0.395s0.709-0.151,0.953-0.395  s0.395-0.581,0.395-0.953S53.993,64.945,53.749,64.701z"/><text x="0.0" y="112.8" font-size="4.800000000000001" font-weight="bold" font-family="Arbeit Regular, Helvetica, Arial-Unicode, Arial, Sans-serif" fill="#000000">Created by Sinta Maulana</text><text x="0.0" y="117.6" font-size="4.800000000000001" font-weight="bold" font-family="Arbeit Regular, Helvetica, Arial-Unicode, Arial, Sans-serif" fill="#000000">from Noun Project</text></svg>